<?xml version="1.0" encoding="UTF-8" standalone="no"?>
<svg
   xmlns:dc="http://purl.org/dc/elements/1.1/"
   xmlns:cc="http://creativecommons.org/ns#"
   xmlns:rdf="http://www.w3.org/1999/02/22-rdf-syntax-ns#"
   xmlns:svg="http://www.w3.org/2000/svg"
   xmlns="http://www.w3.org/2000/svg"
   xmlns:sodipodi="http://sodipodi.sourceforge.net/DTD/sodipodi-0.dtd"
   xmlns:inkscape="http://www.inkscape.org/namespaces/inkscape"
   viewBox="0 0 128.00014 128.00034"
   enable-background="new 0 0 64 64"
   version="1.1"
   id="svg138"
   sodipodi:docname="icon.svg"
   inkscape:export-filename="C:\Users\makombo\Documents\Projects\Contributions\goplayext\public\icon48.png"
   inkscape:export-xdpi="36"
   inkscape:export-ydpi="36"
   inkscape:version="1.0.1 (3bc2e813f5, 2020-09-07)"
   width="128.00014"
   height="128.00034">
  <metadata
     id="metadata144">
    <rdf:RDF>
      <cc:Work
         rdf:about="">
        <dc:format>image/svg+xml</dc:format>
        <dc:type
           rdf:resource="http://purl.org/dc/dcmitype/StillImage" />
        <dc:title></dc:title>
      </cc:Work>
    </rdf:RDF>
  </metadata>
  <defs
     id="defs142">
	

	

	

	

	

	
</defs>
  <sodipodi:namedview
     pagecolor="#ffffff"
     bordercolor="#666666"
     borderopacity="1"
     objecttolerance="10"
     gridtolerance="10"
     guidetolerance="10"
     inkscape:pageopacity="0"
     inkscape:pageshadow="2"
     inkscape:window-width="1366"
     inkscape:window-height="715"
     id="namedview140"
     showgrid="false"
     inkscape:zoom="1.4501214"
     inkscape:cx="49.239891"
     inkscape:cy="105.01077"
     inkscape:window-x="1358"
     inkscape:window-y="-8"
     inkscape:window-maximized="1"
     inkscape:current-layer="svg138"
     inkscape:document-rotation="0"
     inkscape:pagecheckerboard="true"
     fit-margin-top="0"
     fit-margin-left="0"
     fit-margin-right="0"
     fit-margin-bottom="0" />
  <path
     d="m -147.19558,-118.58643 -0.062,-1.805 -1.812,-0.069 c 0,0 -0.098,-0.003 -0.285,-0.003 -2.637,0 -16.43,0.638 -29.02,13.224 -3.371,3.368 -6.324,6.899 -8.715,10.356002 -9.157,-3.708002 -20.101,7.228 -20.101,7.228 0,0 8.415,-3.505 14.489,3.768 -0.448,1.541 -0.649,2.875 -0.671,4.032 l -1.656,1.657 c -0.485,0.485 -0.446,1.313 0.039,1.799 l 0.399,0.398 -1.142,1.143 c -0.279,0.279 -0.363,0.705 -0.163,1.021 -0.807,-0.155 -1.975,0.38 -4.369,1.269001 -3.027,1.123 -3.585,3.677 -3.585,3.677 0,0 0.976,0.479 2.406,0.624 -1.828,2.644 -1.409,5.448 -1.409,5.448 0,0 2.806,0.418 5.449,-1.408 0.145,1.43 0.624,2.405 0.624,2.405 0,0 2.557,-0.559 3.679,-3.587 0.902,-2.43 1.44,-3.597 1.261,-4.403 0.329,0.164 0.773,0.133 1.029,-0.123 l 1.143,-1.144 0.479,0.479 c 0.487,0.485 1.235,0.446 1.719,-0.041 l 1.68,-1.677 c 1.217,-0.025 2.555,-0.253 3.988,-0.668 7.338,6.075 3.813,14.523 3.813,14.523 0,0 10.969,-10.965 7.22,-20.128001 3.423,-2.36 6.95,-5.307 10.347,-8.701 13.605,-13.598002 13.249,-28.660002 13.226,-29.294002 m -45.99,48.586003 c -0.623,1.68 -2.039,1.99 -2.039,1.99 0,0 -0.367,-0.759 -0.364,-1.793 -1.528,1.213 -3.253,0.973 -3.253,0.973 0,0 -0.239,-1.725 0.974,-3.253 -1.036,0.002 -1.794,-0.364 -1.794,-0.364 0,0 0.31,-1.416 1.99,-2.039 1.292,-0.479 1.934,-0.764001 2.38,-0.700001 l 2.809,2.808001 c 0.063,0.445 -0.223,1.087 -0.703,2.378 m 7.154,-6.246001 c -0.636,0 -1.211,-0.088 -1.754,-0.224 l -3.44,-3.44 c -1.352,-5.55 4.495,-16.231 14.224,-25.957002 5.275,-5.273 10.796,-8.349 15.521,-10.146 l 9.836,9.836 c -1.797,4.722 -4.873,10.240002 -10.149,15.513002 -8.796,8.792 -18.378,14.418 -24.238,14.418"
     id="path34"
     inkscape:export-xdpi="51.200001"
     inkscape:export-ydpi="51.200001" />
  <path
     d="m -166.92958,-105.58343 c -2.683,0 -4.854,2.173 -4.854,4.854 -0.002,2.679002 2.173,4.853002 4.854,4.853002 2.679,0 4.855,-2.174 4.855,-4.853002 0,-2.682 -2.177,-4.854 -4.855,-4.854 m 0,8.088002 c -1.789,0 -3.236,-1.45 -3.236,-3.234002 0,-1.787 1.447,-3.237 3.236,-3.237 1.786,0 3.236,1.449 3.236,3.237 0,1.784002 -1.45,3.234002 -3.236,3.234002"
     id="path36"
     inkscape:export-xdpi="51.200001"
     inkscape:export-ydpi="51.200001" />
  <path
     d="m -176.63958,-95.878428 c -2.681,0.002 -4.854,2.174 -4.855,4.854 0.001,2.68 2.174,4.853 4.854,4.853 2.68,0 4.854,-2.173 4.854,-4.853 10e-4,-2.679 -2.173,-4.853 -4.853,-4.854 m -0.001,8.088 c -1.785,0.001 -3.236,-1.446 -3.236,-3.234 0,-1.788 1.447,-3.235 3.236,-3.235 1.789,0 3.236,1.447 3.236,3.236 0,1.787 -1.447,3.234 -3.236,3.233"
     id="path38"
     inkscape:export-xdpi="51.200001"
     inkscape:export-ydpi="51.200001" />
  <circle
     cx="-162.28558"
     cy="-114.52543"
     r="0.80900002"
     id="circle40"
     inkscape:export-xdpi="51.200001"
     inkscape:export-ydpi="51.200001" />
  <circle
     cx="-159.99557"
     cy="-112.23843"
     r="0.80800003"
     id="circle42"
     inkscape:export-xdpi="51.200001"
     inkscape:export-ydpi="51.200001" />
  <circle
     cx="-157.70657"
     cy="-109.95044"
     r="0.81"
     id="circle44"
     inkscape:export-xdpi="51.200001"
     inkscape:export-ydpi="51.200001" />
  <circle
     cx="-155.41957"
     cy="-107.66344"
     r="0.81"
     id="circle46"
     inkscape:export-xdpi="51.200001"
     inkscape:export-ydpi="51.200001" />
  <path
     d="m -152.55658,-105.94743 c -0.319,-0.316 -0.829,-0.315 -1.146,0 -0.317,0.315 -0.317,0.828 0,1.145 0.316,0.315 0.826,0.314 1.146,0 0.316,-0.317 0.314,-0.829 0,-1.145"
     id="path48"
     inkscape:export-xdpi="51.200001"
     inkscape:export-ydpi="51.200001" />
  <g
     id="g1087"
     transform="translate(-187.91531,-284.45861)">
    <ellipse
       cx="8.0277185"
       cy="82.366821"
       fill="#edf4f9"
       id="circle1627"
       style="fill:#edf4f9;fill-opacity:1;stroke-width:3.57454"
       transform="rotate(-45)"
       rx="17.880632"
       ry="17.86483" />
    <path
       id="path1629"
       style="fill:#8cc5e7;fill-opacity:1;stroke-width:3.57454"
       d="m 52.060073,51.177665 c -0.141984,0.129548 -0.269312,0.29777 -0.377303,0.521963 -1.008489,2.094085 2.052763,2.299869 1.895334,3.228989 -0.301701,1.675043 -0.107882,4.165108 0.126572,6.611946 0.118482,1.348053 -0.120621,3.328657 -0.288084,5.496163 a 17.864829,17.880633 45 0 0 22.285499,-1.042024 c -0.148953,-1.754977 -0.300131,-3.33181 -0.196082,-4.463778 0.223532,-2.447042 0.419558,-4.937277 0.132423,-6.612062 -0.156612,-0.928984 2.904832,-1.150557 1.898189,-3.230666 -0.87592,-1.792291 -2.994131,-0.20919 -3.530378,-0.771618 -2.746658,-2.825191 -6.070826,-3.530482 -8.67473,-3.660189 l -1.439711,6.38e-4 c -2.617078,0.06658 -5.941901,0.827154 -8.677971,3.667862 -0.469617,0.492575 -2.159222,-0.653261 -3.153764,0.25277 z" />
    <path
       fill="#e0dedc"
       d="m 69.149966,52.961087 c -4.370697,0.512256 -3.783876,5.065661 -2.096532,6.543546 3.139246,2.746517 6.41177,-0.0028 6.04661,-2.776742 -0.325952,-2.669247 -2.589143,-3.924427 -3.950078,-3.766804 z"
       id="path1631"
       style="stroke-width:0.130852" />
    <circle
       fill="#111212"
       cx="69.474358"
       cy="56.917244"
       r="1.4917179"
       id="circle1633"
       transform="matrix(0.9999999,-4.421273e-4,-4.421273e-4,0.9999999,0,0)"
       style="stroke-width:0.130852" />
    <circle
       fill="#ffffff"
       cx="69.081795"
       cy="56.276073"
       r="0.47106886"
       id="circle1635"
       transform="matrix(0.9999999,-4.421273e-4,-4.421273e-4,0.9999999,0,0)"
       style="stroke-width:0.130852" />
    <path
       fill="#b8937f"
       d="m 64.606337,59.859018 c -2.093778,0.314973 -2.839904,0.917223 -2.683297,1.859291 0.261024,1.543945 5.194235,1.371654 5.35183,0.07615 0.131346,-1.112304 -1.844107,-2.053569 -2.668533,-1.935436 z"
       id="path1637"
       style="stroke-width:0.130852" />
    <path
       d="m 63.258281,60.487707 c -0.35387,1.28251 2.839015,1.084818 2.760869,0.260482 -0.03904,-0.484136 -0.470581,-1.098951 -1.609009,-1.072277 -0.444907,0.01328 -0.994574,0.209804 -1.15186,0.811795 z"
       id="path1639"
       style="stroke-width:0.130852" />
    <path
       fill="#e0dedc"
       d="m 63.362041,62.568214 c -0.117807,0.0524 -0.314635,1.334834 0.287256,1.399994 0.405624,0.03908 1.517815,0.169436 1.779593,-7.87e-4 0.510471,-0.327356 0.458477,-1.112449 0.170686,-1.3086 -0.484026,-0.313818 -2.106653,-0.15609 -2.237535,-0.09061 z"
       id="path1641"
       style="stroke-width:0.130852" />
    <path
       fill="#e0dedc"
       d="m 60.042636,52.965115 c 4.370244,0.508393 3.779396,5.062318 2.090746,6.541696 -3.141671,2.749289 -6.411769,0.0028 -6.044157,-2.771401 0.341396,-2.669537 2.605701,-3.926722 3.953411,-3.770295 z"
       id="path1643"
       style="stroke-width:0.130852" />
    <circle
       fill="#111212"
       cx="59.778198"
       cy="56.917244"
       r="1.4917179"
       id="circle1645"
       transform="matrix(0.9999999,-4.421273e-4,-4.421273e-4,0.9999999,0,0)"
       style="stroke-width:0.130852" />
    <circle
       fill="#ffffff"
       cx="60.170757"
       cy="56.276073"
       r="0.47106886"
       id="circle1647"
       transform="matrix(0.9999999,-4.421273e-4,-4.421273e-4,0.9999999,0,0)"
       style="stroke-width:0.130852" />
    <path
       fill="#3c89bf"
       d="m 75.091089,52.003238 c -0.07863,0.274846 0.274677,0.235423 0.405164,1.085896 0.0522,0.314018 1.177873,-0.458503 0.720133,-1.020975 -0.37927,-0.470896 -1.059757,-0.339745 -1.125306,-0.06493 z"
       id="path1657"
       style="stroke-width:0.130852" />
    <path
       fill="#3c89bf"
       d="m 54.115443,52.012513 c 0.07838,0.274777 -0.274909,0.235641 -0.406123,1.086254 -0.05248,0.314064 -1.17747,-0.457464 -0.719231,-1.020339 0.366601,-0.471227 1.04697,-0.340679 1.125361,-0.06592 z"
       id="path1659"
       style="stroke-width:0.130852" />
  </g>
  <g
     id="g132"
     transform="translate(-240.6695,-225.84282)">
    <rect
       style="fill:#edf4f9;fill-opacity:1;stroke-width:1.59919"
       id="rect249"
       width="33.138306"
       height="33.138306"
       x="47.396343"
       y="34.271969"
       ry="3.9224205" />
    <ellipse
       style="color:#000000;clip-rule:nonzero;display:inline;overflow:visible;visibility:visible;isolation:auto;mix-blend-mode:normal;color-interpolation:sRGB;color-interpolation-filters:linearRGB;solid-color:#000000;solid-opacity:1;fill:#76e1fe;fill-opacity:1;fill-rule:nonzero;stroke:none;stroke-width:9.02271;stroke-linecap:round;stroke-linejoin:miter;stroke-miterlimit:4;stroke-dasharray:none;stroke-dashoffset:0;stroke-opacity:1;color-rendering:auto;image-rendering:auto;shape-rendering:auto;text-rendering:auto;enable-background:accumulate"
       id="ellipse4216"
       cx="-74.902916"
       cy="-43.815212"
       rx="3.229588"
       ry="3.4473922"
       transform="matrix(-0.49169095,-0.87076978,-0.87076978,0.49169095,0,0)"
       inkscape:transform-center-x="0.67794294"
       inkscape:transform-center-y="-2.3634048" />
    <ellipse
       inkscape:transform-center-y="-2.3633882"
       inkscape:transform-center-x="-0.67793718"
       transform="rotate(-60.548216)"
       ry="3.4473922"
       rx="3.229588"
       cy="67.583244"
       cx="-12.000418"
       id="ellipse4463"
       style="color:#000000;clip-rule:nonzero;display:inline;overflow:visible;visibility:visible;isolation:auto;mix-blend-mode:normal;color-interpolation:sRGB;color-interpolation-filters:linearRGB;solid-color:#000000;solid-opacity:1;fill:#76e1fe;fill-opacity:1;fill-rule:nonzero;stroke:none;stroke-width:9.02271;stroke-linecap:round;stroke-linejoin:miter;stroke-miterlimit:4;stroke-dasharray:none;stroke-dashoffset:0;stroke-opacity:1;color-rendering:auto;image-rendering:auto;shape-rendering:auto;text-rendering:auto;enable-background:accumulate" />
    <path
       inkscape:connector-curvature="0"
       style="color:#000000;clip-rule:nonzero;display:inline;overflow:visible;visibility:visible;isolation:auto;mix-blend-mode:normal;color-interpolation:sRGB;color-interpolation-filters:linearRGB;solid-color:#000000;solid-opacity:1;fill:#76e1fe;fill-opacity:1;fill-rule:nonzero;stroke:none;stroke-width:9.02271;stroke-linecap:round;stroke-linejoin:miter;stroke-miterlimit:4;stroke-dasharray:none;stroke-dashoffset:0;stroke-opacity:1;color-rendering:auto;image-rendering:auto;shape-rendering:auto;text-rendering:auto;enable-background:accumulate"
       d="m 64.006078,39.441675 c -0.997685,0.009 -1.994327,0.04421 -2.992012,0.0812 -5.353486,0.198139 -9.722512,4.457219 -9.722512,9.841971 0,2.687504 0,11.729521 0,18.045417 h 25.263584 c 0,-7.218167 0,-14.436334 0,-18.045417 0,-5.385023 -4.21121,-9.465904 -9.555256,-9.841971 -0.997686,-0.07038 -1.996119,-0.08932 -2.993804,-0.0812 z"
       id="path4465"
       sodipodi:nodetypes="ccsccscc" />
    <path
       inkscape:transform-center-y="-1.3604657"
       inkscape:transform-center-x="-0.98424303"
       sodipodi:nodetypes="sssssss"
       inkscape:connector-curvature="0"
       id="path4469"
       d="m 53.644574,42.763836 c 0.414651,0.23414 1.640565,1.083898 1.787383,1.486943 0.165478,0.454293 0.143809,0.96155 -0.103413,1.399422 -0.312751,0.553814 -0.90709,0.855984 -1.530631,0.844977 -0.306669,-0.009 -1.552161,-0.574927 -1.842943,-0.739141 -0.882006,-0.497963 -1.218783,-1.571575 -0.752211,-2.397875 0.466573,-0.826299 1.5598,-1.092379 2.441815,-0.594326 z"
       style="color:#000000;clip-rule:nonzero;display:inline;overflow:visible;visibility:visible;isolation:auto;mix-blend-mode:normal;color-interpolation:sRGB;color-interpolation-filters:linearRGB;solid-color:#000000;solid-opacity:1;fill:#76e1fe;fill-opacity:1;fill-rule:nonzero;stroke:none;stroke-width:9.02271;stroke-linecap:round;stroke-linejoin:miter;stroke-miterlimit:4;stroke-dasharray:none;stroke-dashoffset:0;stroke-opacity:1;color-rendering:auto;image-rendering:auto;shape-rendering:auto;text-rendering:auto;enable-background:accumulate" />
    <rect
       style="color:#000000;clip-rule:nonzero;display:inline;overflow:visible;visibility:visible;isolation:auto;mix-blend-mode:normal;color-interpolation:sRGB;color-interpolation-filters:linearRGB;solid-color:#000000;solid-opacity:1;fill:#000000;fill-opacity:0.328502;fill-rule:nonzero;stroke:none;stroke-width:9.02271;stroke-linecap:round;stroke-linejoin:miter;stroke-miterlimit:4;stroke-dasharray:none;stroke-dashoffset:0;stroke-opacity:1;color-rendering:auto;image-rendering:auto;shape-rendering:auto;text-rendering:auto;enable-background:accumulate"
       id="rect4473"
       width="2.7850087"
       height="3.186249"
       x="62.485317"
       y="52.362198"
       ry="0.56325459" />
    <path
       inkscape:connector-curvature="0"
       style="color:#000000;clip-rule:nonzero;display:inline;overflow:visible;visibility:visible;isolation:auto;mix-blend-mode:normal;color-interpolation:sRGB;color-interpolation-filters:linearRGB;solid-color:#000000;solid-opacity:1;fill:#76e1fe;fill-opacity:1;fill-rule:nonzero;stroke:none;stroke-width:9.02271;stroke-linecap:round;stroke-linejoin:miter;stroke-miterlimit:4;stroke-dasharray:none;stroke-dashoffset:0;stroke-opacity:1;color-rendering:auto;image-rendering:auto;shape-rendering:auto;text-rendering:auto;enable-background:accumulate"
       d="m 63.923346,41.244412 c -8.120438,0 -10.827251,3.352207 -10.827251,8.120438 v 18.045417 h 21.654501 c -0.04411,-6.637285 0,-16.240875 0,-18.045417 0,-4.768321 -2.706812,-8.120438 -10.82725,-8.120438 z"
       id="path4471"
       sodipodi:nodetypes="zsccsz" />
    <path
       style="color:#000000;clip-rule:nonzero;display:inline;overflow:visible;visibility:visible;isolation:auto;mix-blend-mode:normal;color-interpolation:sRGB;color-interpolation-filters:linearRGB;solid-color:#000000;solid-opacity:1;fill:#76e1fe;fill-opacity:1;fill-rule:nonzero;stroke:none;stroke-width:9.02271;stroke-linecap:round;stroke-linejoin:miter;stroke-miterlimit:4;stroke-dasharray:none;stroke-dashoffset:0;stroke-opacity:1;color-rendering:auto;image-rendering:auto;shape-rendering:auto;text-rendering:auto;enable-background:accumulate"
       d="m 73.915159,42.763836 c -0.414656,0.23414 -1.64056,1.083898 -1.787379,1.486943 -0.165478,0.454293 -0.143808,0.96155 0.103412,1.399422 0.312752,0.553814 0.907085,0.855984 1.530626,0.844977 0.306664,-0.009 1.552168,-0.574927 1.842943,-0.739141 0.882005,-0.497963 1.218778,-1.571575 0.752214,-2.397875 -0.466574,-0.826299 -1.55981,-1.092379 -2.441816,-0.594326 z"
       id="path4481"
       inkscape:connector-curvature="0"
       sodipodi:nodetypes="sssssss"
       inkscape:transform-center-x="0.98424094"
       inkscape:transform-center-y="-1.3604657" />
    <circle
       style="color:#000000;clip-rule:nonzero;display:inline;overflow:visible;visibility:visible;isolation:auto;mix-blend-mode:normal;color-interpolation:sRGB;color-interpolation-filters:linearRGB;solid-color:#000000;solid-opacity:1;fill:#ffffff;fill-opacity:1;fill-rule:nonzero;stroke:none;stroke-width:9.02271;stroke-linecap:round;stroke-linejoin:miter;stroke-miterlimit:4;stroke-dasharray:none;stroke-dashoffset:0;stroke-opacity:1;color-rendering:auto;image-rendering:auto;shape-rendering:auto;text-rendering:auto;enable-background:accumulate"
       id="circle4477"
       cx="68.593262"
       cy="47.553135"
       r="4.198947"
       inkscape:export-filename=".\rect4485.png"
       inkscape:export-xdpi="90"
       inkscape:export-ydpi="90" />
    <circle
       r="4.3594432"
       cy="47.553135"
       cx="58.816029"
       id="circle4483"
       style="color:#000000;clip-rule:nonzero;display:inline;overflow:visible;visibility:visible;isolation:auto;mix-blend-mode:normal;color-interpolation:sRGB;color-interpolation-filters:linearRGB;solid-color:#000000;solid-opacity:1;fill:#ffffff;fill-opacity:1;fill-rule:nonzero;stroke:none;stroke-width:9.02271;stroke-linecap:round;stroke-linejoin:miter;stroke-miterlimit:4;stroke-dasharray:none;stroke-dashoffset:0;stroke-opacity:1;color-rendering:auto;image-rendering:auto;shape-rendering:auto;text-rendering:auto;enable-background:accumulate"
       inkscape:export-filename=".\rect4485.png"
       inkscape:export-xdpi="90"
       inkscape:export-ydpi="90" />
    <rect
       ry="0.65496325"
       y="51.948181"
       x="62.223343"
       height="3.7050316"
       width="3.30896"
       id="rect4485"
       style="color:#000000;clip-rule:nonzero;display:inline;overflow:visible;visibility:visible;isolation:auto;mix-blend-mode:normal;color-interpolation:sRGB;color-interpolation-filters:linearRGB;solid-color:#000000;solid-opacity:1;fill:#fffcfb;fill-opacity:1;fill-rule:nonzero;stroke:none;stroke-width:9.02271;stroke-linecap:round;stroke-linejoin:miter;stroke-miterlimit:4;stroke-dasharray:none;stroke-dashoffset:0;stroke-opacity:1;color-rendering:auto;image-rendering:auto;shape-rendering:auto;text-rendering:auto;enable-background:accumulate"
       inkscape:export-filename=".\rect4485.png"
       inkscape:export-xdpi="90"
       inkscape:export-ydpi="90" />
    <path
       sodipodi:nodetypes="sssssssss"
       inkscape:connector-curvature="0"
       id="path4489"
       d="m 67.512051,52.376811 c 0,0.512941 -0.391278,0.771802 -1.026867,0.902361 -0.263402,0.05414 -0.568765,0.08662 -0.905626,0.105204 -0.508926,0.02887 -1.089747,0.02797 -1.706393,0.02797 -0.607078,0 -1.179432,0 -1.682648,-0.02617 -0.276337,-0.01534 -0.531825,-0.0388 -0.760763,-0.07579 -0.734298,-0.118919 -1.195474,-0.376247 -1.195474,-0.933309 0,-1.046724 1.629178,-1.89531 3.638885,-1.89531 2.009697,0 3.638886,0.848586 3.638886,1.89531 z"
       style="color:#000000;clip-rule:nonzero;display:inline;overflow:visible;visibility:visible;isolation:auto;mix-blend-mode:normal;color-interpolation:sRGB;color-interpolation-filters:linearRGB;solid-color:#000000;solid-opacity:1;fill:#c38c74;fill-opacity:1;fill-rule:nonzero;stroke:none;stroke-width:9.02271;stroke-linecap:round;stroke-linejoin:miter;stroke-miterlimit:4;stroke-dasharray:none;stroke-dashoffset:0;stroke-opacity:1;color-rendering:auto;image-rendering:auto;shape-rendering:auto;text-rendering:auto;enable-background:accumulate"
       inkscape:export-filename=".\rect4485.png"
       inkscape:export-xdpi="90"
       inkscape:export-ydpi="90" />
    <ellipse
       cy="50.707336"
       cx="63.873161"
       id="ellipse4491"
       style="color:#000000;clip-rule:nonzero;display:inline;overflow:visible;visibility:visible;isolation:auto;mix-blend-mode:normal;color-interpolation:sRGB;color-interpolation-filters:linearRGB;solid-color:#000000;solid-opacity:1;fill:#23201f;fill-opacity:1;fill-rule:nonzero;stroke:none;stroke-width:9.02271;stroke-linecap:round;stroke-linejoin:miter;stroke-miterlimit:4;stroke-dasharray:none;stroke-dashoffset:0;stroke-opacity:1;color-rendering:auto;image-rendering:auto;shape-rendering:auto;text-rendering:auto;enable-background:accumulate"
       rx="1.8768797"
       ry="1.2124238"
       inkscape:export-filename=".\rect4485.png"
       inkscape:export-xdpi="90"
       inkscape:export-ydpi="90" />
    <circle
       style="color:#000000;clip-rule:nonzero;display:inline;overflow:visible;visibility:visible;isolation:auto;mix-blend-mode:normal;color-interpolation:sRGB;color-interpolation-filters:linearRGB;solid-color:#000000;solid-opacity:1;fill:#171311;fill-opacity:1;fill-rule:nonzero;stroke:none;stroke-width:9.02271;stroke-linecap:round;stroke-linejoin:miter;stroke-miterlimit:4;stroke-dasharray:none;stroke-dashoffset:0;stroke-opacity:1;color-rendering:auto;image-rendering:auto;shape-rendering:auto;text-rendering:auto;enable-background:accumulate"
       id="circle4493"
       cx="60.687984"
       cy="47.553135"
       r="1.7712148"
       inkscape:export-filename=".\rect4485.png"
       inkscape:export-xdpi="90"
       inkscape:export-ydpi="90" />
    <circle
       r="1.7712148"
       cy="47.553135"
       cx="70.3386"
       id="circle4495"
       style="color:#000000;clip-rule:nonzero;display:inline;overflow:visible;visibility:visible;isolation:auto;mix-blend-mode:normal;color-interpolation:sRGB;color-interpolation-filters:linearRGB;solid-color:#000000;solid-opacity:1;fill:#171311;fill-opacity:1;fill-rule:nonzero;stroke:none;stroke-width:9.02271;stroke-linecap:round;stroke-linejoin:miter;stroke-miterlimit:4;stroke-dasharray:none;stroke-dashoffset:0;stroke-opacity:1;color-rendering:auto;image-rendering:auto;shape-rendering:auto;text-rendering:auto;enable-background:accumulate"
       inkscape:export-filename=".\rect4485.png"
       inkscape:export-xdpi="90"
       inkscape:export-ydpi="90" />
    <path
       sodipodi:nodetypes="cc"
       inkscape:connector-curvature="0"
       id="path4497"
       d="m 54.003363,44.772742 c -1.05605,-0.97761 -1.828879,-0.696643 -1.844397,-0.673364"
       style="display:inline;fill:none;fill-rule:evenodd;stroke:#384e54;stroke-width:0.35848;stroke-linecap:round;stroke-linejoin:miter;stroke-miterlimit:4;stroke-dasharray:none;stroke-opacity:1" />
    <path
       style="display:inline;fill:none;fill-rule:evenodd;stroke:#384e54;stroke-width:0.35848;stroke-linecap:round;stroke-linejoin:miter;stroke-miterlimit:4;stroke-dasharray:none;stroke-opacity:1"
       d="m 53.443691,44.450181 c -1.045332,0.03248 -1.215091,0.568701 -1.207969,0.588551"
       id="path4499"
       inkscape:connector-curvature="0"
       sodipodi:nodetypes="cc" />
    <path
       style="display:inline;fill:none;fill-rule:evenodd;stroke:#384e54;stroke-width:0.35848;stroke-linecap:round;stroke-linejoin:miter;stroke-miterlimit:4;stroke-dasharray:none;stroke-opacity:1"
       d="m 73.514966,44.682245 c 1.056045,-0.977611 1.828876,-0.696644 1.844395,-0.673365"
       id="path4501"
       inkscape:connector-curvature="0"
       sodipodi:nodetypes="cc" />
    <path
       sodipodi:nodetypes="cc"
       inkscape:connector-curvature="0"
       id="path4503"
       d="m 74.138652,44.231651 c 1.045335,0.03248 1.215088,0.568611 1.20796,0.588461"
       style="display:inline;fill:none;fill-rule:evenodd;stroke:#384e54;stroke-width:0.35848;stroke-linecap:round;stroke-linejoin:miter;stroke-miterlimit:4;stroke-dasharray:none;stroke-opacity:1" />
  </g>
  <circle
     cx="177.4801"
     cy="-122.67902"
     fill="#edf4f9"
     id="circle1550"
     style="fill:#2b3b47;fill-opacity:1;stroke-width:3.08909"
     r="15.445476" />
  <path
     id="circle1530"
     style="fill:#76e1fe;fill-opacity:1;stroke-width:3.08909"
     d="m 171.08466,-130.77724 c -0.16585,-0.008 -0.34638,0.0174 -0.54928,0.0884 -1.89507,0.66368 -0.15093,2.66097 -0.8146,3.13274 -1.20741,0.83959 -2.60997,2.48037 -3.96131,4.11957 -0.75103,0.89656 -2.10684,1.96122 -3.53305,3.18394 a 15.445476,15.445476 0 0 0 14.24859,12.98712 c 0.98097,-1.16396 1.85177,-2.22037 2.60674,-2.84879 1.6312,-1.35933 3.27198,-2.76189 4.11957,-3.9613 0.47177,-0.66368 2.47706,1.07247 3.13274,-0.81461 0.55972,-1.6312 -1.70106,-1.95833 -1.68507,-2.63001 0.048,-3.40633 -1.55166,-5.86972 -3.06291,-7.54091 l -0.87978,-0.87977 c -1.63919,-1.55923 -4.13458,-3.12688 -7.54091,-3.06291 -0.58771,0.0141 -0.91985,-1.7194 -2.08073,-1.77351 z" />
  <path
     fill="#e0dedc"
     d="m 180.43395,-119.2391 c -2.98254,-2.35885 -5.40535,0.78361 -5.27742,2.71866 0.23988,3.59824 3.91808,3.91808 5.38936,1.99902 1.4313,-1.8311 0.8156,-3.98204 -0.11194,-4.71768 z"
     id="path501"
     style="stroke-width:0.113082" />
  <circle
     fill="#111212"
     cx="43.531372"
     cy="-208.50841"
     r="1.289131"
     id="circle503"
     transform="rotate(45)"
     style="stroke-width:0.113082" />
  <circle
     fill="#ffffff"
     cx="43.192123"
     cy="-209.0625"
     r="0.40709403"
     id="circle505"
     transform="rotate(45)"
     style="stroke-width:0.113082" />
  <path
     fill="#b8937f"
     d="m 173.44537,-117.79981 c -1.47128,-1.08747 -2.29488,-1.17542 -2.77464,-0.50375 -0.78362,1.10346 2.33486,4.01403 3.22242,3.31837 0.75963,-0.5997 0.12794,-2.38283 -0.44778,-2.81462 z"
     id="path509"
     style="stroke-width:0.113082" />
  <path
     d="m 172.23796,-118.23959 c -0.99951,0.56772 1.07148,2.39882 1.52725,1.84709 0.27187,-0.31984 0.38382,-0.95953 -0.32783,-1.6392 -0.27987,-0.26387 -0.73565,-0.47976 -1.19942,-0.20789 z"
     id="path511"
     style="stroke-width:0.113082" />
  <path
     fill="#e0dedc"
     d="m 171.03055,-116.90425 c -0.10396,-0.04 -1.0075,0.6237 -0.67966,1.0315 0.22388,0.27186 0.82359,1.03149 1.08746,1.08746 0.51175,0.11195 0.95953,-0.3998 0.90356,-0.69566 -0.10396,-0.48776 -1.19142,-1.38332 -1.31136,-1.4233 z"
     id="path513"
     style="stroke-width:0.113082" />
  <path
     fill="#e0dedc"
     d="m 174.86867,-124.80438 c 2.35885,2.98254 -0.78361,5.40535 -2.71867,5.27742 -3.59823,-0.23989 -3.91807,-3.91808 -1.99901,-5.38936 1.83909,-1.4233 3.99004,-0.80761 4.71768,0.11194 z"
     id="path517"
     style="stroke-width:0.113082" />
  <circle
     fill="#111212"
     cx="35.152023"
     cy="-208.50841"
     r="1.289131"
     id="circle519"
     transform="rotate(45)"
     style="stroke-width:0.113082" />
  <circle
     fill="#ffffff"
     cx="35.491272"
     cy="-209.0625"
     r="0.40709403"
     id="circle521"
     transform="rotate(45)"
     style="stroke-width:0.113082" />
  <path
     fill="#3c89bf"
     d="m 184.64788,-116.1926 c -0.2159,0.11995 0.024,0.31185 -0.4158,0.91156 -0.15991,0.22388 0.99951,0.43978 1.06348,-0.18392 0.056,-0.51975 -0.43978,-0.85558 -0.64768,-0.72765 z"
     id="path533"
     style="stroke-width:0.113082" />
  <path
     fill="#3c89bf"
     d="m 171.83016,-129.01031 c -0.11995,0.2159 -0.31184,-0.024 -0.91155,0.41579 -0.22389,0.15992 -0.43978,-0.99951 0.18392,-1.06348 0.51175,-0.064 0.84758,0.43179 0.72764,0.64769 z"
     id="path535"
     style="stroke-width:0.113082" />
  <g
     id="g1773"
     transform="translate(-75.126805,-79.938844)">
    <g
       fill="#ff9d27"
       id="g1679">
      <path
         d="m 10.9,48.7 c 4,-4 4.4,-5 6.9,-2.5 2.5,2.5 1.5,2.8 -2.5,6.9 -3,3 -6.8,2.4 -6.8,2.4 0,0 -0.6,-3.8 2.4,-6.8"
         id="path1675" />
      <path
         d="m 18.5,52.8 c 1.6,-4.2 2.1,-4.7 -0.2,-6 -2.3,-1.3 -2.3,-0.4 -3.8,3.8 -1.2,3.1 0.2,5.9 0.2,5.9 0,0 2.7,-0.5 3.8,-3.7"
         id="path1677" />
    </g>
    <path
       d="m 16.2,48.9 c 0.9,-2.3 0.9,-2.8 2.1,-2.1 1.3,0.7 1,1 0.1,3.3 -0.6,1.7 -2.1,2.1 -2.1,2.1 0,0 -0.7,-1.5 -0.1,-3.3"
       fill="#fdf516"
       id="path1681" />
    <path
       d="m 17.1,45.7 c -1.3,-2.3 -1.8,-1.8 -6,-0.2 -3.1,1.2 -3.7,3.8 -3.7,3.8 0,0 2.8,1.4 5.9,0.2 4.2,-1.6 5.1,-1.6 3.8,-3.8"
       fill="#ff9d27"
       id="path1683" />
    <g
       fill="#fdf516"
       id="g1689">
      <path
         d="m 15,47.8 c 2.3,-0.9 2.8,-0.9 2.1,-2.1 -0.7,-1.3 -1,-1 -3.3,-0.1 -1.7,0.6 -2.1,2.1 -2.1,2.1 0,0 1.6,0.7 3.3,0.1"
         id="path1685" />
      <path
         d="m 13.9,47.6 c 2.2,-2.2 2.4,-2.8 3.8,-1.4 1.4,1.4 0.8,1.6 -1.4,3.8 -1.7,1.7 -3.8,1.3 -3.8,1.3 0,0 -0.2,-2 1.4,-3.7"
         id="path1687" />
    </g>
    <path
       d="M 18.5,38 C 12.3,27.6 2,31.9 2,31.9 c 0,0 14.7,-14.7 24.6,-4.8 z"
       fill="#3baacf"
       id="path1691" />
    <path
       d="m 23.3,30.3 3.2,-3.2 C 16.7,17.2 2,31.9 2,31.9 c 0,0 12.9,-9.2 21.3,-1.6"
       fill="#428bc1"
       id="path1693" />
    <path
       d="m 26,45.5 c 10.4,6.2 6.1,16.5 6.1,16.5 0,0 14.7,-14.7 4.8,-24.6 z"
       fill="#3baacf"
       id="path1695" />
    <path
       d="m 33.7,40.7 3.2,-3.2 c 9.9,9.9 -4.8,24.6 -4.8,24.6 0,0 9.2,-13 1.6,-21.4"
       fill="#428bc1"
       id="path1697" />
    <path
       d="M 48.8,30.9 C 37.1,42.5 24.2,48.8 19.7,44.3 15.2,39.8 21.5,26.9 33.1,15.2 46.7,1.6 61.8,2.2 61.8,2.2 c 0,0 0.5,15.1 -13,28.7"
       fill="#c5d0d8"
       id="path1699" />
    <path
       d="M 45.8,27.6 C 34.2,39.2 22.6,46.8 19.9,44.1 17.2,41.4 24.8,29.8 36.4,18.2 50,4.6 62,2 62,2 62,2 59.4,14 45.8,27.6 Z"
       fill="#dae3ea"
       id="path1701" />
    <path
       d="M 24.3,47.5 C 23.8,48 23,48 22.5,47.5 l -6,-6 C 16,41 16,40.1 16.5,39.6 l 1.8,-1.8 7.8,7.8 -1.8,1.9"
       fill="#c94747"
       id="path1703" />
    <path
       d="m 22.6,45.7 c -0.5,0.5 -1.1,0.7 -1.4,0.4 l -3.4,-3.4 c -0.3,-0.3 -0.1,-0.9 0.4,-1.4 l 1.8,-1.8 4.4,4.4 -1.8,1.8"
       fill="#f15744"
       id="path1705" />
    <path
       d="m 20.9,48.2 c -0.3,0.3 -1,0.3 -1.3,0 L 15.7,44.3 C 15.4,44 15.5,43.4 15.8,43.1 l 1.2,-1.2 5.1,5.1 -1.2,1.2"
       fill="#3e4347"
       id="path1707" />
    <path
       d="m 20.1,47.4 c -0.3,0.3 -0.9,0.4 -1.1,0.2 l -2.7,-2.7 c -0.2,-0.2 -0.1,-0.7 0.3,-1 l 1.2,-1.2 3.5,3.5 -1.2,1.2"
       fill="#62727a"
       id="path1709" />
    <path
       d="m 61.8,2.2 c 0,0 -5.4,-0.2 -12.7,2.6 L 59.2,14.9 C 62,7.6 61.8,2.2 61.8,2.2"
       fill="#c94747"
       id="path1711" />
    <path
       d="m 61.8,2.2 c 0,0 -4.3,0.9 -10.8,4.6 L 57.2,13 C 60.9,6.5 61.8,2.2 61.8,2.2"
       fill="#f15744"
       id="path1713" />
    <circle
       cx="43.5"
       cy="20.5"
       r="5"
       fill="#edf4f9"
       id="circle1715" />
    <circle
       cx="43.5"
       cy="20.5"
       r="3.3"
       fill="#3baacf"
       id="circle1717" />
    <circle
       cx="33.5"
       cy="30.5"
       r="5"
       fill="#edf4f9"
       id="circle1719" />
    <circle
       cx="33.5"
       cy="30.5"
       r="3.3"
       fill="#3baacf"
       id="circle1721" />
    <g
       fill="#ffffff"
       id="g1733">
      <path
         d="m 48.9,6.9 c -0.3,0.3 -0.9,0.3 -1.2,0 -0.3,-0.3 -0.3,-0.9 0,-1.2 0.3,-0.3 0.9,-0.3 1.2,0 0.3,0.3 0.3,0.9 0,1.2"
         id="path1723" />
      <circle
         cx="50.599998"
         cy="8.6000004"
         r="0.80000001"
         id="circle1725" />
      <circle
         cx="53"
         cy="11"
         r="0.80000001"
         id="circle1727" />
      <circle
         cx="55.299999"
         cy="13.4"
         r="0.80000001"
         id="circle1729" />
      <circle
         cx="57.700001"
         cy="15.7"
         r="0.80000001"
         id="circle1731" />
    </g>
  </g>
  <g
     id="g3098"
     transform="translate(7.5855719,-175.15741)">
    <circle
       style="fill:#ff00ff;fill-opacity:1;stroke:#ffffff;stroke-width:0;stroke-miterlimit:4;stroke-dasharray:none;stroke-opacity:1"
       id="circle1775"
       cx="-95.396576"
       cy="38.568424"
       r="30.342285" />
    <path
       id="circle1777"
       style="fill:#6ad7e5;fill-opacity:1;stroke:#000000;stroke-width:0.389;stroke-miterlimit:4;stroke-dasharray:none;stroke-opacity:1"
       d="m -106.29688,27.636719 c -1.90112,0.09611 -3.86842,0.599898 -5.91406,1.617187 -5.65035,2.809996 -9.39712,7.676001 -13.375,12.339844 a 30.342285,30.342285 0 0 0 30.189456,27.316406 30.342285,30.342285 0 0 0 1.193359,-0.02344 c 4.289419,-4.34806 8.459283,-8.760752 10.873047,-14.492188 2.614745,-8.028114 -1.785421,-14.011983 -7.324219,-19.550781 -4.831458,-4.123064 -9.939213,-7.495347 -15.642583,-7.207031 z" />
    <path
       fill-rule="evenodd"
       clip-rule="evenodd"
       fill="#6ad7e5"
       stroke="#000000"
       stroke-width="0.389284"
       stroke-linecap="round"
       d="m -113.43255,30.367354 c -3.97675,-7.088358 7.17553,-10.012778 8.72335,-2.675029 z"
       id="path292"
       style="stroke-width:0.389;stroke-miterlimit:4;stroke-dasharray:none" />
    <path
       fill-rule="evenodd"
       clip-rule="evenodd"
       fill="#6ad7e5"
       stroke="#000000"
       stroke-width="0.389284"
       stroke-linecap="round"
       d="m -82.624204,48.721039 c 7.455104,1.30329 4.472604,12.200403 -2.362969,8.85703 z"
       id="path294" />
    <path
       fill-rule="evenodd"
       clip-rule="evenodd"
       d="m -111.25777,28.654286 c -0.3438,-1.116018 -0.3549,-2.175881 0.93582,-2.57364 1.19492,-0.368213 1.87795,0.484559 2.22185,1.600669 z"
       id="path304"
       style="stroke-width:0.129761" />
    <path
       fill-rule="evenodd"
       clip-rule="evenodd"
       d="m -84.079624,54.364346 c 1.116018,0.343806 2.175881,0.354909 2.57364,-0.935811 0.368213,-1.194927 -0.484559,-1.877952 -1.600668,-2.22185 z"
       id="path306"
       style="stroke-width:0.129761" />
    <path
       fill-rule="evenodd"
       clip-rule="evenodd"
       fill="#ffffff"
       stroke="#000000"
       stroke-width="0.377359"
       stroke-linecap="round"
       d="m -97.112521,43.257021 c -4.786409,6.77529 6.19136,14.696143 10.664423,7.508597 4.011166,-6.445246 -5.635967,-13.198056 -10.664423,-7.508597"
       id="path316" />
    <path
       fill-rule="evenodd"
       clip-rule="evenodd"
       fill="#ffffff"
       stroke="#000000"
       stroke-width="0.366109"
       stroke-linecap="round"
       d="m -109.33944,32.900071 c -3.74389,6.321652 5.60229,13.090794 10.346949,7.738718 5.682302,-6.410104 -5.395569,-15.154643 -10.346949,-7.738718"
       id="path318" />
    <path
       fill-rule="evenodd"
       clip-rule="evenodd"
       fill="#ffffff"
       stroke="#000000"
       stroke-width="0.389284"
       stroke-linecap="round"
       d="m -102.90933,51.333949 c -0.74735,0.755787 -1.42459,1.766103 -2.36628,2.423528 -0.55447,0.170757 -0.96921,-0.167269 -1.44019,-0.345182 -0.3783,-0.519059 -0.46097,-1.190982 -0.22122,-1.790602 0.79745,-1.027749 1.83914,-1.753256 2.78119,-2.637133 z"
       id="path320" />
    <ellipse
       fill-rule="evenodd"
       clip-rule="evenodd"
       cx="-50.907848"
       cy="99.417679"
       rx="1.9242309"
       ry="2.0842266"
       id="ellipse322"
       transform="rotate(45)"
       style="stroke-width:0.129761" />
    <ellipse
       fill-rule="evenodd"
       clip-rule="evenodd"
       fill="#ffffff"
       cx="-50.032608"
       cy="99.888062"
       rx="0.45364565"
       ry="0.52968574"
       id="ellipse324"
       transform="rotate(45)"
       style="stroke-width:0.129761" />
    <ellipse
       fill-rule="evenodd"
       clip-rule="evenodd"
       cx="-34.785393"
       cy="98.898636"
       rx="1.8921797"
       ry="2.0842266"
       id="ellipse328"
       transform="rotate(45)"
       style="stroke-width:0.129761" />
    <ellipse
       fill-rule="evenodd"
       clip-rule="evenodd"
       fill="#ffffff"
       cx="-33.924686"
       cy="99.369019"
       rx="0.44611946"
       ry="0.52968574"
       id="ellipse330"
       transform="rotate(45)"
       style="stroke-width:0.129761" />
    <path
       fill-rule="evenodd"
       clip-rule="evenodd"
       fill="#ffffff"
       stroke="#000000"
       stroke-width="0.389284"
       stroke-linecap="round"
       d="m -106.7158,47.363797 c -2.03237,0.845065 -3.98464,4.646755 -0.25186,4.135495 0.79744,-1.027749 1.83914,-1.753257 2.78119,-2.637134 z"
       id="path334" />
    <path
       fill-rule="evenodd"
       clip-rule="evenodd"
       fill="#f6d2a2"
       stroke="#231f20"
       stroke-width="0.389284"
       stroke-linecap="round"
       d="m -103.74192,44.796214 c -1.2008,-1.012151 -3.42081,-0.600996 -3.88629,1.015086 -0.61668,2.140372 2.58428,2.340398 3.50285,3.540097 1.194,1.243924 0.92883,3.506605 2.96827,3.425218 2.268282,-0.09056 1.859329,-2.796879 1.15548,-4.52784 z"
       id="path336" />
    <path
       fill-rule="evenodd"
       clip-rule="evenodd"
       d="m -103.82358,44.599307 c 1.83492,-1.998793 5.729279,1.41624 4.556374,3.452378 -1.170244,2.031275 -5.796994,-1.851893 -4.556374,-3.452378 0.99077,-1.277965 0,0 0,0 z"
       id="path338"
       style="stroke-width:0.129761" />
  </g>
  <g
     id="g434"
     transform="matrix(0.09175512,0.09175512,-0.09175512,0.09175512,-191.14108,-294.44089)">
    <path
       fill-rule="evenodd"
       clip-rule="evenodd"
       fill="#f6d2a2"
       stroke="#000000"
       stroke-width="3"
       stroke-linecap="round"
       d="m 10.634,300.493 c 0.764,15.751 16.499,8.463 23.626,3.539 6.765,-4.675 8.743,-0.789 9.337,-10.015 0.389,-6.064 1.088,-12.128 0.744,-18.216 -10.23,-0.927 -21.357,1.509 -29.744,7.602 -4.32,3.139 -12.42,13.158 -3.963,17.09"
       id="path288-9" />
    <path
       fill-rule="evenodd"
       clip-rule="evenodd"
       fill="#c6b198"
       stroke="#000000"
       stroke-width="3"
       stroke-linecap="round"
       d="m 10.634,300.493 c 2.29,-0.852 4.717,-1.457 6.271,-3.528"
       id="path290-0" />
    <path
       fill-rule="evenodd"
       clip-rule="evenodd"
       fill="#6ad7e5"
       stroke="#000000"
       stroke-width="3"
       stroke-linecap="round"
       d="M 46.997,112.853 C -13.3,95.897 31.536,19.189 79.956,50.74 Z"
       id="path292-1" />
    <path
       fill-rule="evenodd"
       clip-rule="evenodd"
       fill="#6ad7e5"
       stroke="#000000"
       stroke-width="3"
       stroke-linecap="round"
       d="m 314.895,44.984 c 47.727,-33.523 90.856,42.111 35.388,61.141 z"
       id="path294-4" />
    <path
       fill-rule="evenodd"
       clip-rule="evenodd"
       fill="#f6d2a2"
       stroke="#000000"
       stroke-width="3"
       stroke-linecap="round"
       d="m 325.161,494.343 c 12.123,7.501 34.282,30.182 16.096,41.18 -17.474,15.999 -27.254,-17.561 -42.591,-22.211 6.605,-8.97 14.977,-17.149 26.495,-18.969 z"
       id="path296-0" />
    <path
       fill-rule="evenodd"
       clip-rule="evenodd"
       fill="none"
       stroke="#000000"
       stroke-width="3"
       stroke-linecap="round"
       d="m 341.257,535.522 c -2.696,-5.361 -3.601,-11.618 -8.102,-15.939"
       id="path298-6" />
    <path
       fill-rule="evenodd"
       clip-rule="evenodd"
       fill="#f6d2a2"
       stroke="#000000"
       stroke-width="3"
       stroke-linecap="round"
       d="m 108.579,519.975 c -14.229,2.202 -22.238,15.039 -34.1,21.558 -11.178,6.665 -15.454,-2.134 -16.461,-3.92 -1.752,-0.799 -1.605,0.744 -4.309,-1.979 -10.362,-16.354 10.797,-28.308 21.815,-36.432 15.346,-3.102 24.963,10.202 33.055,20.773 z"
       id="path300-7" />
    <path
       fill-rule="evenodd"
       clip-rule="evenodd"
       fill="none"
       stroke="#000000"
       stroke-width="3"
       stroke-linecap="round"
       d="m 58.019,537.612 c 0.542,-6.233 5.484,-10.407 7.838,-15.677"
       id="path302-0" />
    <path
       fill-rule="evenodd"
       clip-rule="evenodd"
       d="M 49.513,91.667 C 41.558,87.459 35.722,81.744 40.588,72.543 45.093,64.025 53.462,64.95 61.418,69.158 Z"
       id="path304-6" />
    <path
       fill-rule="evenodd"
       clip-rule="evenodd"
       d="m 337.716,83.667 c 7.955,-4.208 13.791,-9.923 8.925,-19.124 -4.505,-8.518 -12.874,-7.593 -20.83,-3.385 z"
       id="path306-4" />
    <path
       fill-rule="evenodd"
       clip-rule="evenodd"
       fill="#f6d2a2"
       stroke="#000000"
       stroke-width="3"
       stroke-linecap="round"
       d="m 392.475,298.493 c -0.764,15.751 -16.499,8.463 -23.626,3.539 -6.765,-4.675 -8.743,-0.789 -9.337,-10.015 -0.389,-6.064 -1.088,-12.128 -0.744,-18.216 10.23,-0.927 21.357,1.509 29.744,7.602 4.319,3.139 12.42,13.158 3.963,17.09"
       id="path308-9" />
    <path
       fill-rule="evenodd"
       clip-rule="evenodd"
       fill="#c6b198"
       stroke="#000000"
       stroke-width="3"
       stroke-linecap="round"
       d="m 392.475,298.493 c -2.29,-0.852 -4.717,-1.457 -6.271,-3.528"
       id="path310-9" />
    <g
       id="g314">
      <path
         fill-rule="evenodd"
         clip-rule="evenodd"
         fill="#6ad7e5"
         stroke="#000000"
         stroke-width="3"
         stroke-linecap="round"
         d="m 195.512,13.124 c 60.365,0 116.953,8.633 146.452,66.629 26.478,65.006 17.062,135.104 21.1,203.806 3.468,58.992 11.157,127.145 -16.21,181.812 -28.79,57.514 -100.73,71.982 -160,69.863 C 140.299,533.568 84.06,518.38 57.785,475.845 26.959,425.945 41.553,351.747 43.792,296.223 46.444,230.452 25.977,164.481 47.584,100.122 69.999,33.359 130.451,18.271 195.512,13.124"
         id="path312" />
    </g>
    <path
       fill-rule="evenodd"
       clip-rule="evenodd"
       fill="#ffffff"
       stroke="#000000"
       stroke-width="2.9081"
       stroke-linecap="round"
       d="m 206.169,94.16 c 10.838,63.003 113.822,46.345 99.03,-17.197 -13.264,-56.98 -102.632,-41.208 -99.03,17.197"
       id="path316-8" />
    <path
       fill-rule="evenodd"
       clip-rule="evenodd"
       fill="#ffffff"
       stroke="#000000"
       stroke-width="2.8214"
       stroke-linecap="round"
       d="M 83.103,104.35 C 97.15,159.2 184.967,145.157 181.657,90.137 177.691,24.242 69.673,36.957 83.103,104.35"
       id="path318-3" />
    <path
       fill-rule="evenodd"
       clip-rule="evenodd"
       fill="#ffffff"
       stroke="#000000"
       stroke-width="3"
       stroke-linecap="round"
       d="m 218.594,169.762 c 0.046,8.191 1.861,17.387 0.312,26.101 -2.091,3.952 -6.193,4.37 -9.729,5.967 -4.89,-0.767 -9.002,-3.978 -10.963,-8.552 -1.255,-9.946 0.468,-19.576 0.785,-29.526 z"
       id="path320-5" />
    <g
       id="g326">
      <ellipse
         fill-rule="evenodd"
         clip-rule="evenodd"
         cx="107.324"
         cy="95.403999"
         rx="14.829"
         ry="16.062"
         id="ellipse322-8" />
      <ellipse
         fill-rule="evenodd"
         clip-rule="evenodd"
         fill="#ffffff"
         cx="114.069"
         cy="99.028999"
         rx="3.4960001"
         ry="4.0819998"
         id="ellipse324-0" />
    </g>
    <g
       id="g332">
      <ellipse
         fill-rule="evenodd"
         clip-rule="evenodd"
         cx="231.571"
         cy="91.403999"
         rx="14.582"
         ry="16.062"
         id="ellipse328-5" />
      <ellipse
         fill-rule="evenodd"
         clip-rule="evenodd"
         fill="#ffffff"
         cx="238.20399"
         cy="95.028999"
         rx="3.438"
         ry="4.0819998"
         id="ellipse330-7" />
    </g>
    <path
       fill-rule="evenodd"
       clip-rule="evenodd"
       fill="#ffffff"
       stroke="#000000"
       stroke-width="3"
       stroke-linecap="round"
       d="m 176.217,168.87 c -6.47,15.68 3.608,47.035 21.163,23.908 -1.255,-9.946 0.468,-19.576 0.785,-29.526 z"
       id="path334-7" />
    <g
       id="g340">
      <path
         fill-rule="evenodd"
         clip-rule="evenodd"
         fill="#f6d2a2"
         stroke="#231f20"
         stroke-width="3"
         stroke-linecap="round"
         d="m 178.431,138.673 c -12.059,1.028 -21.916,15.366 -15.646,26.709 8.303,15.024 26.836,-1.329 38.379,0.203 13.285,0.272 24.17,14.047 34.84,2.49 11.867,-12.854 -5.109,-25.373 -18.377,-30.97 z"
         id="path336-1" />
      <path
         fill-rule="evenodd"
         clip-rule="evenodd"
         d="m 176.913,138.045 c -0.893,-20.891 38.938,-23.503 43.642,-6.016 4.692,17.446 -41.681,21.498 -43.642,6.016 -1.565,-12.363 0,0 0,0 z"
         id="path338-8" />
    </g>
  </g>
  <circle
     cx="79.274605"
     cy="-224.48495"
     fill="#edf4f9"
     id="circle3285"
     style="fill:#2b3b47;fill-opacity:1;stroke-width:5.2958"
     r="26.479034" />
  <circle
     cx="78.44397"
     cy="-225.93936"
     fill="#edf4f9"
     id="circle445"
     style="stroke-width:4.46828"
     r="22.34145" />
  <circle
     cx="78.590294"
     cy="-225.79237"
     r="15.712753"
     fill="#3baacf"
     id="circle120"
     style="stroke-width:4.76144" />
  <g
     id="g3432"
     transform="translate(9.1009163,-251.06459)">
    <path
       fill-rule="evenodd"
       clip-rule="evenodd"
       fill="#f6d2a2"
       stroke="#000000"
       stroke-width="0.389284"
       stroke-linecap="round"
       d="m 210.12108,-59.040753 c -1.37513,1.515336 0.73735,2.290392 1.84309,2.492528 1.04968,0.191768 0.87461,0.72982 1.77564,-0.06221 0.5921,-0.52071 1.21264,-1.012976 1.73968,-1.603145 -0.8536,-1.023712 -2.09807,-1.821156 -3.42669,-2.031642 -0.6844,-0.108363 -2.34691,0.06771 -1.93172,1.204469"
       id="path3386"
       style="stroke:none" />
    <path
       fill-rule="evenodd"
       clip-rule="evenodd"
       fill="#c6b198"
       stroke="#000000"
       stroke-width="0.389284"
       stroke-linecap="round"
       d="m 210.12108,-59.040753 c 0.2883,0.131944 0.5665,0.299122 0.89911,0.251685"
       id="path3388"
       style="stroke:none" />
    <path
       fill-rule="evenodd"
       clip-rule="evenodd"
       fill="#6ad7e5"
       stroke="#000000"
       stroke-width="0.389284"
       stroke-linecap="round"
       d="m 230.6745,-72.921192 c -3.97675,-7.088358 7.17553,-10.012778 8.72335,-2.675029 z"
       id="path3390"
       style="stroke:none" />
    <path
       fill-rule="evenodd"
       clip-rule="evenodd"
       fill="#6ad7e5"
       stroke="#000000"
       stroke-width="0.389284"
       stroke-linecap="round"
       d="m 261.48285,-54.567507 c 7.4551,1.30329 4.4726,12.200403 -2.36297,8.85703 z"
       id="path3392"
       style="stroke:none" />
    <path
       fill-rule="evenodd"
       clip-rule="evenodd"
       fill="#f6d2a2"
       stroke="#000000"
       stroke-width="0.389284"
       stroke-linecap="round"
       d="m 221.19382,-12.39456 c 0.42409,1.800602 0.37619,5.9149019 -2.30159,5.2553661 -3.07132,-0.1353388 -0.88938,-4.1120061 -1.86997,-5.9459151 1.42909,-0.217001 2.94773,-0.199292 4.17156,0.690549 z"
       id="path3394"
       style="stroke:none" />
    <path
       fill-rule="evenodd"
       clip-rule="evenodd"
       fill="none"
       stroke="#000000"
       stroke-width="0.389284"
       stroke-linecap="round"
       d="m 218.89232,-7.1392856 c 0.24453,-0.739271 0.7356,-1.3964212 0.71909,-2.2058849"
       id="path3396"
       style="stroke:none" />
    <path
       fill-rule="evenodd"
       clip-rule="evenodd"
       fill="#f6d2a2"
       stroke="#000000"
       stroke-width="0.389284"
       stroke-linecap="round"
       d="m 198.96944,-29.9152 c -1.50763,-1.103539 -3.42035,-0.660545 -5.10691,-1.150793 -1.63718,-0.414091 -1.22217,-1.613789 -1.1507,-1.870061 -0.0874,-0.234067 -0.21553,-0.079 -0.21379,-0.576956 0.5498,-2.45133 3.58809,-1.606724 5.34446,-1.341185 1.6927,1.12345 1.3544,3.226569 1.12694,4.938995 z"
       id="path3398"
       style="stroke:none" />
    <path
       fill-rule="evenodd"
       clip-rule="evenodd"
       fill="none"
       stroke="#000000"
       stroke-width="0.389284"
       stroke-linecap="round"
       d="m 192.71202,-32.936054 c 0.62164,-0.522179 1.45808,-0.451711 2.15762,-0.719269"
       id="path3400"
       style="stroke:none" />
    <path
       fill-rule="evenodd"
       clip-rule="evenodd"
       d="m 232.84928,-74.63426 c -0.3438,-1.116018 -0.3549,-2.175881 0.93582,-2.57364 1.19492,-0.368213 1.87795,0.484559 2.22185,1.600669 z"
       id="path3402"
       style="stroke-width:0.129761" />
    <path
       fill-rule="evenodd"
       clip-rule="evenodd"
       d="m 260.02743,-48.9242 c 1.11601,0.343806 2.17588,0.354909 2.57364,-0.935811 0.36821,-1.194927 -0.48456,-1.877952 -1.60067,-2.22185 z"
       id="path3404"
       style="stroke-width:0.129761" />
    <path
       fill-rule="evenodd"
       clip-rule="evenodd"
       fill="#f6d2a2"
       stroke="#000000"
       stroke-width="0.389284"
       stroke-linecap="round"
       d="m 245.34046,-24.188396 c -1.51534,1.375134 -2.29039,-0.737344 -2.49253,-1.843085 -0.19177,-1.049679 -0.72982,-0.87461 0.0622,-1.775645 0.52071,-0.592096 1.01298,-1.212636 1.60315,-1.739677 1.02371,0.853597 1.82115,2.098072 2.03164,3.426686 0.10827,0.68431 -0.0677,2.346913 -1.20447,1.931721"
       id="path3406"
       style="stroke:none" />
    <path
       fill-rule="evenodd"
       clip-rule="evenodd"
       fill="#c6b198"
       stroke="#000000"
       stroke-width="0.389284"
       stroke-linecap="round"
       d="m 245.34046,-24.188396 c -0.13194,-0.288295 -0.29912,-0.566496 -0.25168,-0.899109"
       id="path3408"
       style="stroke:none" />
    <path
       fill-rule="evenodd"
       clip-rule="evenodd"
       fill="#6ad7e5"
       stroke="#000000"
       stroke-width="0.389284"
       stroke-linecap="round"
       d="m 253.45216,-68.444827 c 5.5388,5.538798 9.93892,11.523159 7.32417,19.551273 -3.53514,8.394125 -10.83096,13.96201 -16.76421,20.636277 -5.09461,5.731025 -10.64249,12.689917 -18.16953,15.194831 -7.91884,2.635574 -15.84721,-2.637776 -21.09111,-8.270531 -4.11879,-4.424524 -7.88543,-10.978317 -6.3935,-17.291986 1.75014,-7.407024 9.89726,-12.875996 15.19731,-17.765168 6.27816,-5.791491 10.45339,-13.72262 18.34121,-17.645335 8.18254,-4.069156 15.11372,0.09322 21.55566,5.590639"
       id="path3410"
       style="stroke:none" />
    <path
       fill-rule="evenodd"
       clip-rule="evenodd"
       fill="#ffffff"
       stroke="#000000"
       stroke-width="0.377359"
       stroke-linecap="round"
       d="m 246.99453,-60.031525 c -4.78641,6.77529 6.19136,14.696143 10.66442,7.508597 4.01117,-6.445246 -5.63596,-13.198056 -10.66442,-7.508597"
       id="path3412"
       style="stroke:none" />
    <path
       fill-rule="evenodd"
       clip-rule="evenodd"
       fill="#ffffff"
       stroke="#000000"
       stroke-width="0.366109"
       stroke-linecap="round"
       d="m 234.76761,-70.388475 c -3.74389,6.321652 5.60229,13.090794 10.34695,7.738718 5.6823,-6.410104 -5.39557,-15.154643 -10.34695,-7.738718"
       id="path3414"
       style="stroke:none" />
    <path
       fill-rule="evenodd"
       clip-rule="evenodd"
       fill="#ffffff"
       stroke="#000000"
       stroke-width="0.389284"
       stroke-linecap="round"
       d="m 241.19772,-51.954597 c -0.74735,0.755787 -1.42459,1.766103 -2.36628,2.423528 -0.55447,0.170757 -0.96921,-0.167269 -1.44019,-0.345182 -0.3783,-0.519059 -0.46097,-1.190982 -0.22122,-1.790602 0.79745,-1.027749 1.83914,-1.753256 2.78119,-2.637133 z"
       id="path3416"
       style="stroke:#ffffff" />
    <ellipse
       fill-rule="evenodd"
       clip-rule="evenodd"
       cx="119.37655"
       cy="-216.93878"
       rx="1.9242309"
       ry="2.0842266"
       id="ellipse3418"
       transform="rotate(45)"
       style="stroke-width:0.129761" />
    <ellipse
       fill-rule="evenodd"
       clip-rule="evenodd"
       fill="#ffffff"
       cx="120.25179"
       cy="-216.4684"
       rx="0.45364565"
       ry="0.52968574"
       id="ellipse3420"
       transform="rotate(45)"
       style="stroke:none;stroke-width:0.129761" />
    <ellipse
       fill-rule="evenodd"
       clip-rule="evenodd"
       cx="135.49901"
       cy="-217.45782"
       rx="1.8921797"
       ry="2.0842266"
       id="ellipse3422"
       transform="rotate(45)"
       style="stroke-width:0.129761" />
    <ellipse
       fill-rule="evenodd"
       clip-rule="evenodd"
       fill="#ffffff"
       cx="136.35971"
       cy="-216.98744"
       rx="0.44611946"
       ry="0.52968574"
       id="ellipse3424"
       transform="rotate(45)"
       style="stroke-width:0.129761" />
    <path
       fill-rule="evenodd"
       clip-rule="evenodd"
       fill="#ffffff"
       stroke="#000000"
       stroke-width="0.389284"
       stroke-linecap="round"
       d="m 237.39125,-55.924749 c -2.03237,0.845065 -3.98464,4.646755 -0.25186,4.135495 0.79744,-1.027749 1.83914,-1.753257 2.78119,-2.637134 z"
       id="path3426"
       style="stroke:#ffffff" />
    <path
       fill-rule="evenodd"
       clip-rule="evenodd"
       fill="#f6d2a2"
       stroke="#231f20"
       stroke-width="0.389284"
       stroke-linecap="round"
       d="m 240.36513,-58.492332 c -1.2008,-1.012151 -3.42081,-0.600996 -3.88629,1.015086 -0.61668,2.140372 2.58428,2.340398 3.50285,3.540097 1.194,1.243924 0.92883,3.506605 2.96827,3.425218 2.26828,-0.09056 1.85933,-2.796879 1.15548,-4.52784 z"
       id="path3428"
       style="stroke:none" />
    <path
       fill-rule="evenodd"
       clip-rule="evenodd"
       d="m 240.28347,-58.689239 c 1.83492,-1.998793 5.72928,1.41624 4.55637,3.452378 -1.17024,2.031275 -5.79699,-1.851893 -4.55637,-3.452378 0.99077,-1.277965 0,0 0,0 z"
       id="path3430"
       style="stroke-width:0.129761" />
  </g>
  <path
     fill="#ffb636"
     d="m -310.44434,64.831323 c 0,0 0.0575,0.15256 0.16927,0.44819 0.0527,0.14461 0.13228,0.33845 0.20045,0.54229 0.071,0.20641 0.15306,0.44589 0.24606,0.71665 0.0963,0.27409 0.1746,0.55101 0.27723,0.87177 0.0978,0.3164 0.21363,0.67049 0.30435,1.01869 0.0983,0.35588 0.20399,0.73818 0.31676,1.14611 0.10441,0.39948 0.19208,0.80049 0.29776,1.2374 0.41964,1.74457 0.76555,3.69707 0.96245,5.73471 0.10795,1.02817 0.15382,2.05301 0.17637,3.10683 0.001,1.03279 -0.0231,2.09199 -0.1186,3.12657 -0.096,1.03407 -0.24783,2.05892 -0.46247,3.06145 -0.21844,0.99869 -0.49972,1.97482 -0.84917,2.91761 -0.69866,1.88558 -1.67859,3.6281 -2.95147,5.16831 -0.62972,0.77715 -1.36562,1.47021 -2.09469,2.18788 -0.73945,0.70716 -1.49613,1.41458 -2.28601,2.1002 -1.57215,1.37893 -3.24314,2.704787 -4.99952,3.944747 -1.75055,1.24561 -3.59183,2.39942 -5.48049,3.4581 -0.94674,0.52691 -1.90843,1.0269 -2.87545,1.50381 -0.97157,0.47229 -1.95176,0.91817 -2.93499,1.33765 -1.97254,0.83254 -3.96003,1.55534 -5.93055,2.15404 -1.96671,0.60254 -3.91417,1.0833 -5.78154,1.45662 -3.72868,0.75229 -7.15098,1.06074 -9.6947,1.12664 -0.32057,0.006 -0.6239,0.011 -0.90949,0.0159 -0.29066,-2.5e-4 -0.56308,-5.1e-4 -0.81674,-7.7e-4 -0.52051,-0.0141 -0.96321,-0.0259 -1.3223,-0.0356 -0.37124,-0.0221 -0.65582,-0.039 -0.84765,-0.0503 -0.19766,-0.0174 -0.29953,-0.0262 -0.29953,-0.0262 0,0 -0.009,-0.10333 -0.0258,-0.30307 -0.0111,-0.1941 -0.0279,-0.48204 -0.0497,-0.85767 -0.01,-0.36332 -0.0213,-0.81126 -0.0352,-1.33791 -2.6e-4,-0.2564 -5.1e-4,-0.53229 -7.6e-4,-0.82638 0.005,-0.28897 0.0101,-0.59588 0.0157,-0.92023 0.0651,-2.57377 0.36972,-6.03649 1.11348,-9.809197 0.36897,-1.88918 0.84411,-3.85963 1.43937,-5.84983 0.59171,-1.99379 1.30607,-4.00501 2.1289,-6.00059 0.41457,-0.99485 0.85525,-1.98635 1.32204,-2.96966 0.47134,-0.97843 0.96549,-1.95148 1.48624,-2.9094 1.04633,-1.91097 2.18668,-3.77399 3.41774,-5.54522 1.22524,-1.77713 2.53587,-3.46785 3.89871,-5.05857 0.67762,-0.79921 1.37653,-1.56508 2.07568,-2.31301 0.7093,-0.73767 1.39426,-1.48226 2.16235,-2.11942 1.52249,-1.28791 3.24441,-2.27942 5.10798,-2.98633 0.93179,-0.35332 1.89652,-0.63818 2.88355,-0.8592 0.99083,-0.21717 2.00371,-0.37076 3.02572,-0.46794 1.0225,-0.0967 2.06959,-0.12153 3.09008,-0.11999 1.04151,0.0226 2.05414,0.0692 3.07056,0.17845 2.01385,0.19923 3.94357,0.54896 5.66777,0.97382 0.43155,0.10666 0.82789,0.19564 1.22295,0.30127 0.40318,0.1141 0.78101,0.22102 1.13275,0.32051 0.34413,0.0921 0.69434,0.20897 1.00679,0.30794 0.31727,0.10358 0.5907,0.18307 0.8616,0.2805 0.2676,0.0941 0.50403,0.17718 0.70828,0.24897 0.20146,0.069 0.39304,0.14948 0.53596,0.20281 0.29117,0.11154 0.44195,0.17 0.44195,0.17 z"
     id="path3692"
     style="fill:#ff9d27;fill-opacity:1;stroke-width:0.254902" />
  <path
     fill="#ff473e"
     d="m -342.87928,32.012293 -18.37577,18.59278 c -1.27009,1.28509 -0.37048,3.48246 1.42569,3.48246 h 15.44406 c 0.5347,0 1.0476,0.21487 1.42569,0.59742 l 10.02793,10.14637 16.2869,-33.41645 h -24.80882 c -0.53469,-2.6e-4 -1.0476,0.21486 -1.42568,0.59742 z"
     id="path3694"
     style="fill:#6699ff;fill-opacity:1;stroke-width:0.254902" />
  <path
     fill="#ff473e"
     d="m -307.57904,86.072233 10.02794,10.14637 c 0.37808,0.38255 0.59044,0.90151 0.59044,1.44252 v 15.626457 c 0,1.81739 2.17172,2.72761 3.44181,1.44252 l 18.37577,-18.592777 c 0.37808,-0.38255 0.59044,-0.90151 0.59044,-1.44252 v -25.10183 z"
     id="path3696"
     style="fill:#6699ff;fill-opacity:1;stroke-width:0.254902" />
  <path
     fill="#ffb636"
     d="m -308.73535,63.196883 c 0,0 0.0457,0.12128 0.13458,0.3563 0.0419,0.11495 0.10516,0.26906 0.15935,0.43111 0.0564,0.16408 0.12168,0.35447 0.19561,0.56972 0.0766,0.21789 0.1388,0.43803 0.22039,0.69303 0.0778,0.25153 0.16983,0.53303 0.24195,0.80983 0.0782,0.28293 0.16217,0.58684 0.25182,0.91114 0.083,0.31758 0.1527,0.63637 0.23671,0.98371 0.33361,1.38689 0.6086,2.93909 0.76513,4.55896 0.0858,0.81737 0.12228,1.6321 0.14021,2.46986 10e-4,0.82105 -0.0183,1.66308 -0.0943,2.48556 -0.0763,0.82206 -0.19702,1.63679 -0.36766,2.43378 -0.17365,0.79393 -0.39727,1.56993 -0.67507,2.31943 -0.55542,1.499 -1.33444,2.88426 -2.34635,4.1087 -0.50062,0.6178 -1.08564,1.16878 -1.66523,1.7393 -0.58785,0.56219 -1.18939,1.12457 -1.81733,1.66962 -1.24983,1.09622 -2.57822,2.15025 -3.9745,3.13599 -1.39166,0.99023 -2.85543,1.90749 -4.35687,2.74911 -0.75264,0.41888 -1.51716,0.81636 -2.28592,1.1955 -0.77237,0.37545 -1.5516,0.72993 -2.33325,1.0634 -1.56813,0.66186 -3.14814,1.23645 -4.71465,1.71241 -1.5635,0.478997 -3.11168,0.861187 -4.5962,1.157967 -2.96421,0.59805 -5.68486,0.84328 -7.70707,0.89566 -0.25484,0.004 -0.49598,0.008 -0.72303,0.0127 -0.23106,-1.9e-4 -0.44763,-4e-4 -0.64928,-6.1e-4 -0.41379,-0.0114 -0.76573,-0.0205 -1.0512,-0.0283 -0.29513,-0.0176 -0.52136,-0.031 -0.67387,-0.0399 -0.15713,-0.0138 -0.23811,-0.021 -0.23811,-0.021 0,0 -0.007,-0.0822 -0.0205,-0.24094 -0.009,-0.1543 -0.0222,-0.38319 -0.0395,-0.68182 -0.007,-0.28885 -0.0169,-0.64495 -0.028,-1.063607 -2.1e-4,-0.20382 -4.1e-4,-0.42315 -6.1e-4,-0.65696 0.004,-0.22972 0.008,-0.47371 0.0125,-0.73156 0.0518,-2.04609 0.29392,-4.79886 0.88519,-7.7981 0.29332,-1.50186 0.67105,-3.0683 1.14427,-4.65049 0.4704,-1.58501 1.0383,-3.18388 1.69243,-4.77032 0.32958,-0.79088 0.6799,-1.57911 1.05099,-2.36081 0.3747,-0.77783 0.76754,-1.55138 1.18153,-2.31291 0.83181,-1.51918 1.73836,-3.00024 2.71703,-4.40833 0.97403,-1.41277 2.01596,-2.75686 3.09938,-4.02145 0.53869,-0.63535 1.09431,-1.2442 1.65012,-1.83878 0.56388,-0.58643 1.10841,-1.17837 1.71902,-1.6849 1.21034,-1.02386 2.57923,-1.81209 4.06073,-2.37406 0.74075,-0.28088 1.50769,-0.50734 2.29236,-0.68305 0.78769,-0.17265 1.5929,-0.29474 2.40537,-0.372 0.81287,-0.0768 1.64528,-0.0966 2.45654,-0.0954 0.82799,0.018 1.633,0.055 2.44104,0.14187 1.60096,0.15838 3.13504,0.43641 4.50574,0.77416 0.34308,0.0848 0.65816,0.15553 0.97223,0.23951 0.32051,0.0907 0.62088,0.1757 0.9005,0.25479 0.27358,0.0732 0.55199,0.16613 0.80038,0.24481 0.25222,0.0823 0.46959,0.14554 0.68495,0.22299 0.21274,0.0748 0.40069,0.14085 0.56307,0.19792 0.16015,0.0549 0.31245,0.11884 0.42607,0.16124 0.23148,0.0887 0.35134,0.13514 0.35134,0.13514 z"
     id="path3698"
     style="fill:#fdf516;fill-opacity:1;stroke-width:0.20264" />
  <path
     id="path3700"
     style="fill:#003399;fill-opacity:1;stroke-width:0.254902"
     d="m -245.24997,-12.650757 c -2.62558,0.0531 -5.69414,0.24085 -9.02344,0.64648 -0.84309,0.0905 -1.67581,0.22058 -2.54297,0.34571 -0.87604,0.11615 -1.73208,0.28062 -2.6289,0.43164 -1.78577,0.31024 -3.60334,0.69762 -5.45703,1.14453 -3.70435,0.8971501 -7.51971,2.0678201 -11.32618,3.5390601 -3.80621,1.47124 -7.60928,3.23721 -11.30273,5.30664 -3.69041,2.07250003 -7.2894,4.43161 -10.71094,7.06641 -3.42483,2.63146 -6.67638,5.5352499 -9.7168,8.6523399 -3.04066,3.11683 -5.87414,6.44232 -8.44726,9.93555 -0.6429,0.87356 -1.27597,1.7517 -1.88086,2.65039 -0.61477,0.88869 -1.20282,1.79632 -1.78516,2.70117 -1.1558,1.81841 -2.23849,3.67689 -3.2539,5.55273 -2.0288,3.75348 -3.77453,7.59965 -5.22657,11.45313 -1.45203,3.85348 -2.6149,7.70747 -3.51171,11.44531 -0.44575,1.87148 -0.83707,3.70207 -1.14649,5.50586 -0.0798,0.44845 -0.15853,0.89147 -0.23633,1.32813 -0.0743,0.44024 -0.13597,0.88504 -0.20312,1.31836 -0.0656,0.43485 -0.12975,0.86481 -0.19336,1.2871 -0.0542,0.43153 -0.1094,0.85695 -0.16211,1.2754 -0.41889,3.35041 -0.6236,6.43321 -0.69531,9.07031 -0.0742,2.63454 -0.009,4.82725 0.0879,6.37695 0.0281,0.75459 0.0988,1.38353 0.12695,1.78711 0.0147,0.2023 0.0362,0.36651 0.0469,0.47266 0.0116,0.10717 0.0176,0.16211 0.0176,0.16211 0.12924,1.17689 1.04991,2.15045 2.26172,2.28711 0,0 0.0523,0.006 0.1582,0.0176 0.10491,0.0108 0.26881,0.032 0.46875,0.0469 0.39887,0.0285 1.0201,0.10236 1.76563,0.13086 1.53161,0.0982 3.6992,0.16328 6.30273,0.0879 2.60632,-0.0726 5.65354,-0.28125 8.96485,-0.70508 0.41356,-0.0531 0.83302,-0.10721 1.25976,-0.16211 0.41737,-0.0644 0.8417,-0.13086 1.27149,-0.19726 0.42826,-0.0679 0.86983,-0.12968 1.30468,-0.20508 0.43156,-0.0787 0.86929,-0.15748 1.3125,-0.23828 1.78274,-0.31307 3.58982,-0.7111 5.43946,-1.16211 3.69395,-0.90767 7.50595,-2.08381 11.31445,-3.55274 3.8085,-1.46893 7.60869,-3.23604 11.31836,-5.28906 1.8542,-1.02715 3.68914,-2.12131 5.48633,-3.29102 0.89428,-0.58921 1.7916,-1.1846 2.66992,-1.80664 0.88795,-0.61203 1.75773,-1.24989 2.62109,-1.90039 3.45246,-2.60351 6.73765,-5.47225 9.81837,-8.54883 3.0807,-3.07632 5.95198,-6.36479 8.55273,-9.83007 2.60429,-3.46195 4.9341,-7.1039 6.98242,-10.83789 2.04527,-3.73707 3.79008,-7.58413 5.24414,-11.43555 1.45407,-3.85143 2.61136,-7.71284 3.49805,-11.46094 0.44169,-1.87558 0.82424,-3.71461 1.13086,-5.52148 0.14926,-0.90741 0.31293,-1.77378 0.42773,-2.66016 0.12366,-0.8774099 0.2521,-1.7214199 0.3418,-2.5742199 0.40089,-3.36862 0.58617,-6.47231 0.63867,-9.1289 0.054,-2.65505 -0.0222,-4.86205 -0.13672,-6.42969 -0.0357,-0.76203 -0.11133,-1.39429 -0.14453,-1.80274 -0.0167,-0.20435 -0.0408,-0.36913 -0.0527,-0.47656 -0.0125,-0.1082 -0.0195,-0.1640601 -0.0195,-0.1640601 -0.13949,-1.1706 -1.05132,-2.13974 -2.25983,-2.28717 0,0 -0.0552,-0.006 -0.16211,-0.0195 -0.10618,-0.0123 -0.26873,-0.0358 -0.4707,-0.0527 -0.40368,-0.0333 -1.03008,-0.11033 -1.78321,-0.14648 -1.54935,-0.11615 -3.72945,-0.19329 -6.35351,-0.13867 z" />
  <path
     fill="#ff473e"
     d="m -300.75091,55.023153 c 0,0 0.0502,0.13768 0.14774,0.40434 0.0824,0.25153 0.19335,0.61332 0.26988,1.01638 0.18144,0.83459 0.2415,1.85046 -0.0864,2.73403 -0.16168,0.44408 -0.4607,0.81433 -0.74224,1.26201 -0.28914,0.43999 -0.60185,0.91587 -0.93584,1.42432 -0.66875,1.01612 -1.4234,2.1625 -2.24648,3.41323 -0.83068,1.24304 -1.73358,2.58659 -2.69932,3.99655 -0.966,1.40996 -1.99408,2.88709 -3.07006,4.40294 -0.54154,0.75409 -1.0922,1.52099 -1.6497,2.29712 -0.56536,0.76818 -1.13756,1.54585 -1.71406,2.32942 -1.1629,1.5579 -2.35291,3.13195 -3.56295,4.6855 -1.20547,1.55816 -2.42614,3.10119 -3.63997,4.60756 -1.21156,1.50893 -2.39954,2.99786 -3.56878,4.4191 -0.58233,0.71305 -1.15479,1.41431 -1.71533,2.10045 -0.56814,0.67844 -1.08485,1.38175 -1.68492,1.9684 -0.59627,0.59024 -1.28428,1.05535 -2.07492,1.37842 -0.7838,0.32999 -1.64184,0.54691 -2.47151,0.74947 -1.6649,0.39896 -3.26442,0.69049 -4.73749,0.89279 -0.73591,0.10179 -1.43962,0.18179 -2.10432,0.24204 -0.66114,0.0636 -1.30075,0.089 -1.86129,0.12974 -0.56485,0.0362 -1.10411,0.0331 -1.55467,0.0492 -0.45741,0.009 -0.8692,-0.006 -1.19154,-0.006 -0.32918,-0.007 -0.59221,-0.0241 -0.76428,-0.03 -0.17815,-0.0121 -0.27014,-0.0185 -0.27014,-0.0185 0,0 -0.006,-0.0931 -0.0182,-0.27332 -0.006,-0.1741 -0.0223,-0.4405 -0.0297,-0.77331 -5.1e-4,-0.32615 -0.0155,-0.74254 -0.006,-1.20561 0.0157,-0.45614 0.0129,-1.00151 0.0487,-1.57303 0.0401,-0.56716 0.0654,-1.21432 0.12823,-1.88328 0.0593,-0.67228 0.13836,-1.38457 0.23922,-2.12916 0.19994,-1.49047 0.48807,-3.10889 0.88237,-4.79345 0.2002,-0.83921 0.41458,-1.70739 0.74072,-2.5007 0.3193,-0.80023 0.77898,-1.49611 1.36233,-2.09942 0.5798,-0.60691 1.27491,-1.12971 1.94568,-1.70457 0.67838,-0.56716 1.3712,-1.14638 2.07593,-1.73559 1.40466,-1.18304 2.87621,-2.38531 4.36752,-3.61092 1.48879,-1.22817 3.01381,-2.46326 4.55378,-3.68297 1.53541,-1.22458 3.09109,-2.42839 4.63081,-3.60502 0.77467,-0.58357 1.54301,-1.16253 2.30223,-1.73431 0.76707,-0.56408 1.52477,-1.12125 2.2703,-1.66918 1.49816,-1.08843 2.95805,-2.12891 4.35155,-3.10632 1.39376,-0.97715 2.72137,-1.89097 3.9499,-2.7312 1.23613,-0.83279 2.36913,-1.59636 3.37339,-2.27301 0.50251,-0.33794 0.97284,-0.65434 1.4077,-0.94689 0.4422,-0.28487 0.80812,-0.58742 1.24728,-0.75101 0.87325,-0.33178 1.87726,-0.27101 2.70211,-0.0874 0.39836,0.0774 0.75592,0.18974 1.00451,0.27307 0.26254,0.0977 0.39862,0.14846 0.39862,0.14846 z"
     id="path3702"
     style="fill:#6699ff;fill-opacity:1;stroke-width:0.254902" />
  <path
     id="path3704"
     style="fill:#6ad7e5;fill-opacity:1;stroke:#ffffff;stroke-width:0;stroke-miterlimit:4;stroke-dasharray:none;stroke-opacity:1"
     d="m -278.62533,10.520453 c -1.85333,0.0937 -3.77118,0.58292 -5.7654,1.57463 -7.68954,3.82412 -11.76038,11.55699 -17.88074,17.20291 -0.88882,0.81991 -1.87359,1.66464 -2.8808,2.52474 a 29.579576,29.579576 0 0 0 29.5315,27.88642 29.579576,29.579576 0 0 0 0.39985,-0.002 c 0.88983,-1.00564 1.78492,-2.02072 2.64089,-2.98361 5.78411,-6.5065 12.89601,-11.93485 16.34228,-20.11798 2.54903,-7.82631 -1.74054,-13.65977 -7.14011,-19.05934 -4.71001,-4.01942 -9.68746,-7.30693 -15.24747,-7.02587 z" />
  <path
     fill-rule="evenodd"
     clip-rule="evenodd"
     fill="#6ad7e5"
     stroke="#000000"
     stroke-width="0.379499"
     stroke-linecap="round"
     d="m -285.58265,13.182203 c -3.8768,-6.9101799 6.99515,-9.7610799 8.50406,-2.60778 z"
     id="path3706"
     style="stroke:#6ad7e5;stroke-opacity:1" />
  <path
     fill-rule="evenodd"
     clip-rule="evenodd"
     fill="#6ad7e5"
     stroke="#000000"
     stroke-width="0.379499"
     stroke-linecap="round"
     d="m -255.54873,31.074543 c 7.2677,1.27053 4.36017,11.89372 -2.30357,8.63439 z"
     id="path3708"
     style="stroke:#6ad7e5;stroke-opacity:1" />
  <path
     fill-rule="evenodd"
     clip-rule="evenodd"
     d="m -283.46254,11.512203 c -0.33517,-1.08797 -0.34599,-2.1211899 0.91229,-2.5089499 1.16489,-0.35896 1.83074,0.47238 2.16599,1.5604299 z"
     id="path3710"
     style="stroke-width:0.126499" />
  <path
     fill-rule="evenodd"
     clip-rule="evenodd"
     d="m -256.96757,36.575993 c 1.08797,0.33516 2.12119,0.34599 2.50895,-0.9123 0.35895,-1.16488 -0.47238,-1.83074 -1.56043,-2.166 z"
     id="path3712"
     style="stroke-width:0.126499" />
  <path
     fill-rule="evenodd"
     clip-rule="evenodd"
     fill="#ffffff"
     stroke="#000000"
     stroke-width="0.367873"
     stroke-linecap="round"
     d="m -269.67286,25.747863 c -4.6661,6.60498 6.03572,14.32673 10.39635,7.31986 3.91034,-6.28324 -5.4943,-12.8663 -10.39635,-7.31986"
     id="path3714"
     style="fill:#ffffff;fill-opacity:1;stroke:#ffffff;stroke-opacity:1" />
  <path
     fill-rule="evenodd"
     clip-rule="evenodd"
     fill="#ffffff"
     stroke="#000000"
     stroke-width="0.356906"
     stroke-linecap="round"
     d="m -281.59244,15.651263 c -3.64977,6.16274 5.46147,12.76172 10.08686,7.54419 5.53947,-6.24898 -5.25994,-14.7737099 -10.08686,-7.54419"
     id="path3716"
     style="fill:#ffffff;fill-opacity:1;stroke:#ffffff;stroke-opacity:1" />
  <path
     fill-rule="evenodd"
     clip-rule="evenodd"
     fill="#ffffff"
     stroke="#000000"
     stroke-width="0.379499"
     stroke-linecap="round"
     d="m -275.32396,33.621773 c -0.72856,0.73679 -1.38878,1.7217 -2.3068,2.36261 -0.54053,0.16645 -0.94484,-0.16307 -1.40398,-0.33651 -0.3688,-0.50601 -0.44939,-1.16105 -0.21566,-1.7456 0.77739,-1.00191 1.79291,-1.70918 2.71128,-2.57084 z"
     id="path3718"
     style="stroke:#ffffff;stroke-opacity:1" />
  <path
     fill-rule="evenodd"
     clip-rule="evenodd"
     fill="#ffffff"
     stroke="#000000"
     stroke-width="0.379499"
     stroke-linecap="round"
     d="m -279.03474,29.751413 c -1.98129,0.82382 -3.88449,4.52995 -0.24554,4.03154 0.7774,-1.00192 1.79291,-1.70918 2.71128,-2.57084 z"
     id="path3720"
     style="stroke:#ffffff;stroke-opacity:1" />
  <path
     fill-rule="evenodd"
     clip-rule="evenodd"
     fill="#f6d2a2"
     stroke="#231f20"
     stroke-width="0.379499"
     stroke-linecap="round"
     d="m -276.13562,27.248363 c -1.17062,-0.9867 -3.33483,-0.58588 -3.7886,0.98958 -0.60118,2.08657 2.51932,2.28157 3.41479,3.45111 1.164,1.21265 0.90549,3.41846 2.89367,3.33912 2.21126,-0.0883 1.81259,-2.72657 1.12643,-4.41402 z"
     id="path3722"
     style="stroke:#f6d2a2;stroke-opacity:1" />
  <path
     fill-rule="evenodd"
     clip-rule="evenodd"
     d="m -276.21523,27.056413 c 1.78879,-1.94855 5.58527,1.38064 4.44184,3.36559 -1.14083,1.98022 -5.65128,-1.80534 -4.44184,-3.36559 0.96587,-1.24584 0,0 0,0 z"
     id="path3724"
     style="stroke-width:0.126499" />
  <ellipse
     fill-rule="evenodd"
     clip-rule="evenodd"
     cx="-184.98486"
     cy="209.05138"
     rx="1.8759534"
     ry="2.031935"
     id="ellipse3726"
     transform="rotate(45)"
     style="stroke-width:0.126505" />
  <ellipse
     fill-rule="evenodd"
     clip-rule="evenodd"
     fill="#ffffff"
     cx="-184.13159"
     cy="209.50993"
     rx="0.44226402"
     ry="0.51639628"
     id="ellipse3728"
     transform="rotate(45)"
     style="stroke:none;stroke-width:0.126505" />
  <ellipse
     fill-rule="evenodd"
     clip-rule="evenodd"
     cx="-169.26767"
     cy="208.54536"
     rx="1.8446304"
     ry="2.0318511"
     id="ellipse3732"
     transform="rotate(45)"
     style="stroke-width:0.1265" />
  <ellipse
     fill-rule="evenodd"
     clip-rule="evenodd"
     fill="#ffffff"
     cx="-168.42859"
     cy="209.00392"
     rx="0.43490878"
     ry="0.51637501"
     id="ellipse3734"
     transform="rotate(45)"
     style="stroke-width:0.1265" />
  <g
     id="g3960"
     transform="translate(7.5855719,-175.15741)">
    <path
       fill="#ff473e"
       d="M 18.970296,44.680626 0.59453377,63.273411 c -1.27009017,1.285091 -0.3704852,3.482462 1.42568383,3.482462 H 17.464281 c 0.534695,0 1.047596,0.214865 1.425684,0.597418 L 28.917899,77.499659 45.204804,44.083208 H 20.395979 c -0.534694,-2.57e-4 -1.047596,0.214865 -1.425683,0.597418 z"
       id="path163"
       style="fill:#6699ff;fill-opacity:1;stroke-width:0.254902" />
    <path
       fill="#ff473e"
       d="m 54.270541,98.740571 10.027935,10.146369 c 0.378087,0.38255 0.590445,0.90151 0.590445,1.44252 v 15.62646 c 0,1.81739 2.171722,2.72761 3.441812,1.44252 l 18.375762,-18.59278 c 0.378088,-0.38255 0.590445,-0.90151 0.590445,-1.44252 V 82.261313 Z"
       id="path166"
       style="fill:#6699ff;fill-opacity:1;stroke-width:0.254902" />
    <path
       id="path169"
       style="fill:#003399;fill-opacity:1;stroke-width:0.254902"
       d="m 116.59961,0.01757813 c -2.62558,0.05307534 -5.69414,0.2408553 -9.02344,0.64648437 -0.84309,0.0905101 -1.67581,0.2205786 -2.54297,0.3457031 -0.87604,0.1161504 -1.73208,0.2806195 -2.6289,0.4316406 -1.78577,0.3102474 -3.603341,0.6976214 -5.457034,1.1445313 C 93.24292,3.4830905 89.427563,4.6537613 85.621094,6.125 c -3.806216,1.4712387 -7.609286,3.2372142 -11.302735,5.306641 -3.690407,2.072503 -7.289397,4.431611 -10.710937,7.066406 -3.424834,2.631461 -6.676386,5.535257 -9.716797,8.652344 -3.040665,3.116831 -5.874142,6.442317 -8.447266,9.935547 -0.642901,0.873564 -1.27597,1.751699 -1.880859,2.65039 -0.614773,0.888692 -1.202821,1.796327 -1.785156,2.701172 -1.155803,1.818408 -2.238493,3.676892 -3.253906,5.552734 -2.028799,3.753479 -3.774525,7.599649 -5.226563,11.453125 -1.452039,3.853476 -2.614902,7.707475 -3.511719,11.445313 -0.445748,1.871483 -0.83707,3.702066 -1.146484,5.505859 -0.07982,0.448448 -0.158528,0.891472 -0.236328,1.328125 -0.07425,0.440244 -0.135975,0.88504 -0.203125,1.31836 -0.06563,0.434859 -0.12975,0.864813 -0.19336,1.287109 -0.05423,0.431525 -0.109399,0.856942 -0.162109,1.275391 -0.418887,3.350414 -0.623603,6.43321 -0.695312,9.070312 -0.07425,2.634538 -0.0089,4.827255 0.08789,6.376953 0.02813,0.754593 0.09882,1.383532 0.126953,1.78711 0.0147,0.202302 0.03623,0.366506 0.04687,0.472656 0.01164,0.107174 0.01758,0.162109 0.01758,0.162109 0.129239,1.176894 1.049913,2.150454 2.261719,2.287114 0,0 0.05228,0.006 0.158203,0.0176 0.104911,0.0108 0.26881,0.032 0.46875,0.0469 0.398868,0.0285 1.020093,0.10236 1.765625,0.13086 1.531609,0.0982 3.699202,0.16328 6.302735,0.0879 2.60632,-0.0726 5.653537,-0.28125 8.964843,-0.70508 0.413565,-0.0531 0.833024,-0.10721 1.259766,-0.16211 0.417366,-0.0644 0.841701,-0.13086 1.271484,-0.19726 0.428263,-0.0679 0.869836,-0.12968 1.304688,-0.20508 0.431557,-0.0787 0.869286,-0.15748 1.3125,-0.23828 1.782739,-0.31307 3.589815,-0.711101 5.439453,-1.162113 3.693956,-0.907666 7.505956,-2.083803 11.314453,-3.552735 3.808496,-1.46893 7.608695,-3.236045 11.318359,-5.289062 1.854202,-1.027149 3.689146,-2.121307 5.486329,-3.291016 0.894283,-0.589214 1.791605,-1.184607 2.669921,-1.80664 0.88795,-0.612033 1.757727,-1.249897 2.621094,-1.900391 3.452456,-2.603513 6.737651,-5.472252 9.818367,-8.548828 3.0807,-3.07632 5.95198,-6.364795 8.55273,-9.830078 2.60429,-3.461949 4.9341,-7.103898 6.98242,-10.837891 2.04527,-3.737069 3.79008,-7.584122 5.24414,-11.435547 1.45407,-3.851425 2.61136,-7.712842 3.49805,-11.460937 0.44169,-1.875585 0.82424,-3.714615 1.13086,-5.521484 0.14926,-0.90741 0.31293,-1.773773 0.42773,-2.660157 0.12366,-0.87741 0.2521,-1.721421 0.3418,-2.574219 0.40089,-3.368618 0.58617,-6.472317 0.63867,-9.128906 0.054,-2.6550491 -0.0222,-4.8620411 -0.13672,-6.4296872 -0.0357,-0.7620289 -0.11133,-1.3942849 -0.14453,-1.8027344 -0.0167,-0.2043529 -0.0408,-0.3691298 -0.0527,-0.4765625 -0.0125,-0.1082015 -0.0195,-0.1640625 -0.0195,-0.1640625 C 127.48948,1.491571 126.57765,0.52243155 125.36914,0.375 c 0,0 -0.0552,-0.006455 -0.16211,-0.0195313 -0.10618,-0.0123074 -0.26873,-0.0358118 -0.4707,-0.0527344 -0.40368,-0.0333323 -1.03008,-0.11033158 -1.78321,-0.14648438 -1.54935,-0.11615042 -3.72945,-0.19328565 -6.35351,-0.13867179 z" />
    <path
       fill="#ff473e"
       d="m 61.09867,67.691486 c 0,0 0.05018,0.137688 0.147737,0.404347 0.08236,0.251531 0.193352,0.613316 0.269882,1.016381 0.181441,0.83459 0.2415,1.850458 -0.08641,2.734022 -0.161675,0.444089 -0.460699,0.814335 -0.742237,1.262014 -0.289141,0.439987 -0.601849,0.91587 -0.935843,1.424317 -0.668748,1.016124 -1.423403,2.1625 -2.246478,3.413232 -0.830678,1.243041 -1.733577,2.586591 -2.699322,3.996549 -0.965998,1.409959 -1.994082,2.887095 -3.07006,4.402947 -0.541537,0.754081 -1.092197,1.520981 -1.649698,2.297112 -0.565358,0.768183 -1.137557,1.545852 -1.714065,2.329419 -1.162897,1.557903 -2.35291,3.131959 -3.562942,4.685503 -1.205471,1.558159 -2.426146,3.10119 -3.639979,4.607561 -1.211553,1.50893 -2.399538,2.99786 -3.568771,4.4191 -0.582336,0.71305 -1.154789,1.41431 -1.715331,2.10045 -0.568145,0.67844 -1.084848,1.38175 -1.684922,1.9684 -0.596274,0.59024 -1.284282,1.05535 -2.07492,1.37842 -0.783797,0.32999 -1.641843,0.54691 -2.471507,0.74947 -1.664902,0.39896 -3.264425,0.69049 -4.737497,0.89279 -0.735902,0.10179 -1.439621,0.18179 -2.104315,0.24204 -0.661146,0.0636 -1.300753,0.089 -1.861295,0.12974 -0.564851,0.0362 -1.104107,0.0331 -1.55467,0.0492 -0.457405,0.009 -0.869196,-0.006 -1.191533,-0.006 -0.329179,-0.007 -0.592219,-0.0241 -0.764284,-0.03 -0.178147,-0.0121 -0.270135,-0.0185 -0.270135,-0.0185 0,0 -0.0061,-0.0931 -0.01825,-0.27332 -0.0058,-0.1741 -0.0223,-0.4405 -0.02965,-0.77331 -5.07e-4,-0.32615 -0.01546,-0.74254 -0.0063,-1.20561 0.01571,-0.45614 0.01292,-1.00151 0.04866,-1.57303 0.04004,-0.56716 0.06538,-1.21432 0.128225,-1.88328 0.0593,-0.67228 0.138362,-1.38457 0.239219,-2.12916 0.199941,-1.49047 0.488068,-3.10889 0.882373,-4.793453 0.200194,-0.839206 0.414579,-1.707385 0.740717,-2.500695 0.319297,-0.800233 0.778982,-1.49611 1.362332,-2.099426 0.579802,-0.606905 1.274905,-1.12971 1.945681,-1.704565 0.678378,-0.567162 1.3712,-1.146376 2.075933,-1.73559 1.404651,-1.183042 2.876202,-2.385314 4.367519,-3.610919 1.488783,-1.228169 3.013803,-2.463261 4.553775,-3.682968 1.53541,-1.224579 3.091093,-2.42839 4.630811,-3.605022 0.774674,-0.583573 1.543013,-1.16253 2.302229,-1.734308 0.767072,-0.564086 1.524767,-1.121249 2.270299,-1.669182 1.498159,-1.088429 2.958053,-2.128911 4.351554,-3.106318 1.393754,-0.977151 2.721368,-1.89097 3.949899,-2.731202 1.236133,-0.832796 2.369129,-1.596363 3.373392,-2.27301 0.502512,-0.337939 0.97284,-0.654339 1.407692,-0.946895 0.4422,-0.284863 0.808124,-0.587419 1.247283,-0.751003 0.87325,-0.331786 1.87726,-0.271018 2.702109,-0.08743 0.39836,0.07743 0.755922,0.189738 1.004517,0.273069 0.262532,0.09769 0.398614,0.148457 0.398614,0.148457 z"
       id="path172"
       style="fill:#6699ff;fill-opacity:1;stroke-width:0.254902" />
    <path
       id="path3359"
       style="fill:#6ad7e5;fill-opacity:1;stroke:none;stroke-width:0.425512;stroke-miterlimit:4;stroke-dasharray:none;stroke-opacity:1"
       d="m 77.320385,25.33663 c -2.134156,0.10788 -4.342592,0.67124 -6.638971,1.81322 -5.111644,2.54209 -8.826464,6.59787 -12.416254,10.811335 a 31.069827,31.203175 0 0 0 -0.002,0.138129 31.069827,31.203175 0 0 0 31.070261,31.201805 31.069827,31.203175 0 0 0 4.086858,-0.271872 C 97.29605,64.954302 100.87013,60.669537 103.10023,55.374208 106.03548,46.36207 101.09597,39.644745 94.878265,33.42705 89.454613,28.79861 83.722984,25.01298 77.32054,25.33663 Z" />
    <path
       fill-rule="evenodd"
       clip-rule="evenodd"
       fill="#6ad7e5"
       stroke="#000000"
       stroke-width="0.436999"
       stroke-linecap="round"
       d="m 69.309204,28.40159 c -4.464189,-7.95719 8.055051,-11.24006 9.79259,-3.00292 z"
       id="path3138"
       style="stroke:none" />
    <path
       fill-rule="evenodd"
       clip-rule="evenodd"
       fill="#6ad7e5"
       stroke="#000000"
       stroke-width="0.436999"
       stroke-linecap="round"
       d="m 103.8938,49.004924 c 8.36889,1.463037 5.02082,13.695833 -2.6526,9.942656 z"
       id="path3140"
       style="stroke:none" />
  </g>
  <g
     id="g3904"
     transform="translate(2.5458264e-7,3.3313264e-4)">
    <path
       fill="#ffb636"
       d="m 51.405236,77.499659 c 0,0 0.05752,0.152559 0.169278,0.448192 0.05271,0.144611 0.13228,0.338451 0.200447,0.542291 0.07096,0.206405 0.153059,0.445885 0.246061,0.716646 0.0963,0.274094 0.174599,0.551009 0.27723,0.871769 0.09782,0.316401 0.213625,0.670493 0.304346,1.018688 0.09832,0.355887 0.203994,0.738183 0.316762,1.14612 0.104405,0.399475 0.192084,0.800489 0.297756,1.2374 0.419647,1.744563 0.765552,3.69707 0.962451,5.734702 0.107953,1.028175 0.15382,2.053017 0.176373,3.106832 0.0015,1.03279 -0.02306,2.091989 -0.118596,3.126574 -0.09604,1.034072 -0.247834,2.058914 -0.462473,3.061449 -0.218439,0.998688 -0.499724,1.974818 -0.849176,2.917608 -0.698651,1.88558 -1.678587,3.6281 -2.951464,5.16831 -0.629724,0.77715 -1.365626,1.47021 -2.094686,2.18788 -0.73945,0.70716 -1.496132,1.41458 -2.286011,2.1002 -1.572154,1.37893 -3.243139,2.70479 -4.999522,3.94475 -1.750556,1.24561 -3.591832,2.39942 -5.480495,3.4581 -0.946739,0.52691 -1.90843,1.0269 -2.875442,1.50381 -0.971573,0.47229 -1.951763,0.91817 -2.934993,1.33765 -1.972542,0.83254 -3.960035,1.55534 -5.93055,2.15404 -1.966714,0.60254 -3.914169,1.0833 -5.781546,1.45662 -3.728673,0.75229 -7.150973,1.06074 -9.6947008,1.12664 -0.3205635,0.006 -0.6238951,0.011 -0.909488,0.0159 -0.2906611,-2.5e-4 -0.5630767,-5.1e-4 -0.8167399,-7.7e-4 -0.5205038,-0.0141 -0.9632109,-0.0259 -1.3222926,-0.0356 -0.3712454,-0.0221 -0.6558247,-0.039 -0.847656,-0.0503 -0.1976596,-0.0174 -0.2995304,-0.0262 -0.2995304,-0.0262 0,0 -0.00887,-0.10333 -0.025848,-0.30307 -0.01115,-0.1941 -0.027875,-0.48204 -0.049668,-0.85767 -0.00963,-0.36332 -0.021286,-0.81126 -0.035224,-1.33791 -2.534e-4,-0.2564 -5.068e-4,-0.53229 -7.602e-4,-0.82638 0.00507,-0.28897 0.010136,-0.59588 0.015711,-0.92023 0.065126,-2.57377 0.3697249,-6.03649 1.1134829,-9.8092 0.3689647,-1.88918 0.8441082,-3.85963 1.4393679,-5.84983 0.591712,-1.99379 1.3060744,-4.00501 2.1288962,-6.000592 0.4145785,-0.994843 0.8552582,-1.986352 1.3220391,-2.969656 0.4713428,-0.978433 0.9654918,-1.951481 1.4862488,-2.909402 1.04633,-1.910969 2.186674,-3.773991 3.417739,-5.545221 1.225237,-1.777127 2.535872,-3.467846 3.898711,-5.058569 0.677617,-0.799207 1.376522,-1.565082 2.07568,-2.313008 0.709294,-0.737671 1.394261,-1.482265 2.162346,-2.119425 1.522486,-1.287911 3.244406,-2.27942 5.107982,-2.986322 0.931788,-0.353323 1.896519,-0.638187 2.883551,-0.859206 0.990832,-0.217173 2.003712,-0.370758 3.025713,-0.467935 1.022509,-0.09666 2.069599,-0.121535 3.09008,-0.119996 1.041515,0.02256 2.05414,0.06923 3.070567,0.178456 2.013848,0.199225 3.943564,0.548958 5.667765,0.973817 0.431557,0.106664 0.82789,0.195636 1.222956,0.301274 0.403175,0.114099 0.781009,0.221019 1.132742,0.320503 0.344131,0.09205 0.694343,0.208968 1.006797,0.30794 0.317269,0.103586 0.590699,0.183071 0.861594,0.280504 0.267601,0.0941 0.504032,0.177174 0.70828,0.248967 0.201461,0.06897 0.393039,0.149483 0.535962,0.202815 0.291168,0.111535 0.441947,0.169995 0.441947,0.169995 z"
       id="path3864"
       style="fill:#ff9d27;fill-opacity:1;stroke-width:0.254902" />
    <path
       fill="#ff473e"
       d="M 18.970296,44.680626 0.59453377,63.273411 c -1.27009017,1.285091 -0.3704852,3.482462 1.42568383,3.482462 H 17.464281 c 0.534695,0 1.047596,0.214865 1.425684,0.597418 L 28.917899,77.499659 45.204804,44.083208 H 20.395979 c -0.534694,-2.57e-4 -1.047596,0.214865 -1.425683,0.597418 z"
       id="path3866"
       style="fill:#6699ff;fill-opacity:1;stroke-width:0.254902" />
    <path
       fill="#ff473e"
       d="m 54.270541,98.740571 10.027935,10.146369 c 0.378087,0.38255 0.590445,0.90151 0.590445,1.44252 v 15.62646 c 0,1.81739 2.171722,2.72761 3.441812,1.44252 l 18.375762,-18.59278 c 0.378088,-0.38255 0.590445,-0.90151 0.590445,-1.44252 V 82.261313 Z"
       id="path3868"
       style="fill:#6699ff;fill-opacity:1;stroke-width:0.254902" />
    <path
       id="path3870"
       style="fill:#003399;fill-opacity:1;stroke-width:0.254902"
       d="m 116.59961,0.01757813 c -2.62558,0.05307534 -5.69414,0.2408553 -9.02344,0.64648437 -0.84309,0.0905101 -1.67581,0.2205786 -2.54297,0.3457031 -0.87604,0.1161504 -1.73208,0.2806195 -2.6289,0.4316406 -1.78577,0.3102474 -3.603341,0.6976214 -5.457034,1.1445313 C 93.24292,3.4830905 89.427563,4.6537613 85.621094,6.125 c -3.806216,1.4712387 -7.609286,3.2372142 -11.302735,5.306641 -3.690407,2.072503 -7.289397,4.431611 -10.710937,7.066406 -3.424834,2.631461 -6.676386,5.535257 -9.716797,8.652344 -3.040665,3.116831 -5.874142,6.442317 -8.447266,9.935547 -0.642901,0.873564 -1.27597,1.751699 -1.880859,2.65039 -0.614773,0.888692 -1.202821,1.796327 -1.785156,2.701172 -1.155803,1.818408 -2.238493,3.676892 -3.253906,5.552734 -2.028799,3.753479 -3.774525,7.599649 -5.226563,11.453125 -1.452039,3.853476 -2.614902,7.707475 -3.511719,11.445313 -0.445748,1.871483 -0.83707,3.702066 -1.146484,5.505859 -0.07982,0.448448 -0.158528,0.891472 -0.236328,1.328125 -0.07425,0.440244 -0.135975,0.88504 -0.203125,1.31836 -0.06563,0.434859 -0.12975,0.864813 -0.19336,1.287109 -0.05423,0.431525 -0.109399,0.856942 -0.162109,1.275391 -0.418887,3.350414 -0.623603,6.43321 -0.695312,9.070312 -0.07425,2.634538 -0.0089,4.827255 0.08789,6.376953 0.02813,0.754593 0.09882,1.383532 0.126953,1.78711 0.0147,0.202302 0.03623,0.366506 0.04687,0.472656 0.01164,0.107174 0.01758,0.162109 0.01758,0.162109 0.129239,1.176894 1.049913,2.150454 2.261719,2.287114 0,0 0.05228,0.006 0.158203,0.0176 0.104911,0.0108 0.26881,0.032 0.46875,0.0469 0.398868,0.0285 1.020093,0.10236 1.765625,0.13086 1.531609,0.0982 3.699202,0.16328 6.302735,0.0879 2.60632,-0.0726 5.653537,-0.28125 8.964843,-0.70508 0.413565,-0.0531 0.833024,-0.10721 1.259766,-0.16211 0.417366,-0.0644 0.841701,-0.13086 1.271484,-0.19726 0.428263,-0.0679 0.869836,-0.12968 1.304688,-0.20508 0.431557,-0.0787 0.869286,-0.15748 1.3125,-0.23828 1.782739,-0.31307 3.589815,-0.711101 5.439453,-1.162113 3.693956,-0.907666 7.505956,-2.083803 11.314453,-3.552735 3.808496,-1.46893 7.608695,-3.236045 11.318359,-5.289062 1.854202,-1.027149 3.689146,-2.121307 5.486329,-3.291016 0.894283,-0.589214 1.791605,-1.184607 2.669921,-1.80664 0.88795,-0.612033 1.757727,-1.249897 2.621094,-1.900391 3.452456,-2.603513 6.737651,-5.472252 9.818367,-8.548828 3.0807,-3.07632 5.95198,-6.364795 8.55273,-9.830078 2.60429,-3.461949 4.9341,-7.103898 6.98242,-10.837891 2.04527,-3.737069 3.79008,-7.584122 5.24414,-11.435547 1.45407,-3.851425 2.61136,-7.712842 3.49805,-11.460937 0.44169,-1.875585 0.82424,-3.714615 1.13086,-5.521484 0.14926,-0.90741 0.31293,-1.773773 0.42773,-2.660157 0.12366,-0.87741 0.2521,-1.721421 0.3418,-2.574219 0.40089,-3.368618 0.58617,-6.472317 0.63867,-9.128906 0.054,-2.6550491 -0.0222,-4.8620411 -0.13672,-6.4296872 -0.0357,-0.7620289 -0.11133,-1.3942849 -0.14453,-1.8027344 -0.0167,-0.2043529 -0.0408,-0.3691298 -0.0527,-0.4765625 -0.0125,-0.1082015 -0.0195,-0.1640625 -0.0195,-0.1640625 C 127.48948,1.491571 126.57765,0.52243155 125.36914,0.375 c 0,0 -0.0552,-0.006455 -0.16211,-0.0195313 -0.10618,-0.0123074 -0.26873,-0.0358118 -0.4707,-0.0527344 -0.40368,-0.0333323 -1.03008,-0.11033158 -1.78321,-0.14648438 -1.54935,-0.11615042 -3.72945,-0.19328565 -6.35351,-0.13867179 z" />
    <path
       fill="#ff473e"
       d="m 61.09867,67.691486 c 0,0 0.05018,0.137688 0.147737,0.404347 0.08236,0.251531 0.193352,0.613316 0.269882,1.016381 0.181441,0.83459 0.2415,1.850458 -0.08641,2.734022 -0.161675,0.444089 -0.460699,0.814335 -0.742237,1.262014 -0.289141,0.439987 -0.601849,0.91587 -0.935843,1.424317 -0.668748,1.016124 -1.423403,2.1625 -2.246478,3.413232 -0.830678,1.243041 -1.733577,2.586591 -2.699322,3.996549 -0.965998,1.409959 -1.994082,2.887095 -3.07006,4.402947 -0.541537,0.754081 -1.092197,1.520981 -1.649698,2.297112 -0.565358,0.768183 -1.137557,1.545852 -1.714065,2.329419 -1.162897,1.557903 -2.35291,3.131959 -3.562942,4.685503 -1.205471,1.558159 -2.426146,3.10119 -3.639979,4.607561 -1.211553,1.50893 -2.399538,2.99786 -3.568771,4.4191 -0.582336,0.71305 -1.154789,1.41431 -1.715331,2.10045 -0.568145,0.67844 -1.084848,1.38175 -1.684922,1.9684 -0.596274,0.59024 -1.284282,1.05535 -2.07492,1.37842 -0.783797,0.32999 -1.641843,0.54691 -2.471507,0.74947 -1.664902,0.39896 -3.264425,0.69049 -4.737497,0.89279 -0.735902,0.10179 -1.439621,0.18179 -2.104315,0.24204 -0.661146,0.0636 -1.300753,0.089 -1.861295,0.12974 -0.564851,0.0362 -1.104107,0.0331 -1.55467,0.0492 -0.457405,0.009 -0.869196,-0.006 -1.191533,-0.006 -0.329179,-0.007 -0.592219,-0.0241 -0.764284,-0.03 -0.178147,-0.0121 -0.270135,-0.0185 -0.270135,-0.0185 0,0 -0.0061,-0.0931 -0.01825,-0.27332 -0.0058,-0.1741 -0.0223,-0.4405 -0.02965,-0.77331 -5.07e-4,-0.32615 -0.01546,-0.74254 -0.0063,-1.20561 0.01571,-0.45614 0.01292,-1.00151 0.04866,-1.57303 0.04004,-0.56716 0.06538,-1.21432 0.128225,-1.88328 0.0593,-0.67228 0.138362,-1.38457 0.239219,-2.12916 0.199941,-1.49047 0.488068,-3.10889 0.882373,-4.793453 0.200194,-0.839206 0.414579,-1.707385 0.740717,-2.500695 0.319297,-0.800233 0.778982,-1.49611 1.362332,-2.099426 0.579802,-0.606905 1.274905,-1.12971 1.945681,-1.704565 0.678378,-0.567162 1.3712,-1.146376 2.075933,-1.73559 1.404651,-1.183042 2.876202,-2.385314 4.367519,-3.610919 1.488783,-1.228169 3.013803,-2.463261 4.553775,-3.682968 1.53541,-1.224579 3.091093,-2.42839 4.630811,-3.605022 0.774674,-0.583573 1.543013,-1.16253 2.302229,-1.734308 0.767072,-0.564086 1.524767,-1.121249 2.270299,-1.669182 1.498159,-1.088429 2.958053,-2.128911 4.351554,-3.106318 1.393754,-0.977151 2.721368,-1.89097 3.949899,-2.731202 1.236133,-0.832796 2.369129,-1.596363 3.373392,-2.27301 0.502512,-0.337939 0.97284,-0.654339 1.407692,-0.946895 0.4422,-0.284863 0.808124,-0.587419 1.247283,-0.751003 0.87325,-0.331786 1.87726,-0.271018 2.702109,-0.08743 0.39836,0.07743 0.755922,0.189738 1.004517,0.273069 0.262532,0.09769 0.398614,0.148457 0.398614,0.148457 z"
       id="path3872"
       style="fill:#6699ff;fill-opacity:1;stroke-width:0.254902" />
    <g
       id="g3902"
       transform="translate(1.462857,-2.1942855)">
      <g
         id="g3900"
         transform="translate(162.41751,139.7863)">
        <path
           id="path3874"
           style="fill:#6ad7e5;fill-opacity:1;stroke:none;stroke-width:0.425512;stroke-miterlimit:4;stroke-dasharray:none;stroke-opacity:1"
           d="m -86.559985,-112.25538 c -2.134156,0.10788 -4.342592,0.67124 -6.638971,1.81322 -5.111644,2.54209 -8.826464,6.59787 -12.416254,10.811335 a 31.069827,31.203175 0 0 0 -0.002,0.138129 31.069827,31.203175 0 0 0 31.070261,31.201805 31.069827,31.203175 0 0 0 4.086858,-0.271872 c 3.875771,-4.074945 7.449851,-8.35971 9.679951,-13.655039 2.93525,-9.012138 -2.00426,-15.729463 -8.221965,-21.947158 -5.423652,-4.62844 -11.155281,-8.41407 -17.557725,-8.09042 z" />
        <path
           fill-rule="evenodd"
           clip-rule="evenodd"
           fill="#6ad7e5"
           stroke="#000000"
           stroke-width="0.436999"
           stroke-linecap="round"
           d="m -94.571166,-109.19042 c -4.464189,-7.95719 8.055051,-11.24006 9.79259,-3.00292 z"
           id="path3876"
           style="stroke:none" />
        <path
           fill-rule="evenodd"
           clip-rule="evenodd"
           fill="#6ad7e5"
           stroke="#000000"
           stroke-width="0.436999"
           stroke-linecap="round"
           d="m -59.98657,-88.587086 c 8.36889,1.463037 5.02082,13.695833 -2.6526,9.942656 z"
           id="path3878"
           style="stroke:none" />
        <path
           fill-rule="evenodd"
           clip-rule="evenodd"
           d="m -92.129818,-111.11346 c -0.385941,-1.25282 -0.398401,-2.44259 1.050525,-2.8891 1.341384,-0.41335 2.108135,0.54395 2.494187,1.79687 z"
           id="path3880"
           style="stroke-width:0.145666" />
        <path
           fill-rule="evenodd"
           clip-rule="evenodd"
           d="m -61.62038,-82.252066 c 1.2528,0.385947 2.44258,0.398411 2.88909,-1.050516 0.41335,-1.341392 -0.54395,-2.108136 -1.79686,-2.494187 z"
           id="path3882"
           style="stroke-width:0.145666" />
        <path
           fill-rule="evenodd"
           clip-rule="evenodd"
           fill="#ffffff"
           stroke="#000000"
           stroke-width="0.423613"
           stroke-linecap="round"
           d="m -76.250754,-94.720841 c -5.373091,7.605753 6.950249,16.497482 11.971582,8.428943 4.502832,-7.235254 -6.326772,-14.815772 -11.971582,-8.428943"
           id="path3884"
           style="stroke:none" />
        <path
           fill-rule="evenodd"
           clip-rule="evenodd"
           fill="#ffffff"
           stroke="#000000"
           stroke-width="0.410984"
           stroke-linecap="round"
           d="m -89.976354,-106.34726 c -4.202787,7.096506 6.288975,14.695357 11.615198,8.687265 6.378792,-7.195805 -6.056917,-17.012175 -11.615198,-8.687265"
           id="path3886"
           style="stroke:none" />
        <path
           fill-rule="evenodd"
           clip-rule="evenodd"
           fill="#ffffff"
           stroke="#000000"
           stroke-width="0.436999"
           stroke-linecap="round"
           d="m -82.758092,-85.653906 c -0.838954,0.848426 -1.599205,1.982578 -2.65632,2.720585 -0.622432,0.191687 -1.088008,-0.187771 -1.616717,-0.387491 -0.424669,-0.582682 -0.517472,-1.336964 -0.248335,-2.01008 0.895195,-1.153723 2.064567,-1.968157 3.122086,-2.960373 z"
           id="path3888"
           style="stroke:#ffffff" />
        <ellipse
           fill-rule="evenodd"
           clip-rule="evenodd"
           cx="-135.29356"
           cy="-12.8791"
           rx="2.1600881"
           ry="2.3396947"
           id="ellipse3890"
           transform="rotate(45)"
           style="stroke-width:0.145666" />
        <ellipse
           fill-rule="evenodd"
           clip-rule="evenodd"
           cx="-117.19495"
           cy="-13.461761"
           rx="2.1241083"
           ry="2.3396947"
           id="ellipse3892"
           transform="rotate(45)"
           style="stroke-width:0.145666" />
        <path
           fill-rule="evenodd"
           clip-rule="evenodd"
           fill="#ffffff"
           stroke="#000000"
           stroke-width="0.436999"
           stroke-linecap="round"
           d="m -87.031129,-90.110688 c -2.281482,0.948646 -4.473046,5.216318 -0.282731,4.642392 0.895184,-1.153723 2.064567,-1.968158 3.122086,-2.960374 z"
           id="path3894"
           style="stroke:#ffffff" />
        <path
           fill-rule="evenodd"
           clip-rule="evenodd"
           fill="#f6d2a2"
           stroke="#231f20"
           stroke-width="0.436999"
           stroke-linecap="round"
           d="m -83.692734,-92.992985 c -1.347985,-1.136213 -3.840106,-0.674662 -4.362641,1.139507 -0.692268,2.402722 2.901041,2.627266 3.932202,3.974014 1.340351,1.396395 1.042679,3.936418 3.332097,3.845055 2.546308,-0.10166 2.087232,-3.139699 1.29711,-5.082827 z"
           id="path3896"
           style="stroke:none" />
        <path
           fill-rule="evenodd"
           clip-rule="evenodd"
           d="m -83.784403,-93.214028 c 2.05983,-2.243789 6.43153,1.589832 5.114854,3.875544 -1.313679,2.280253 -6.50754,-2.078884 -5.114854,-3.875544 1.112211,-1.434608 0,0 0,0 z"
           id="path3898"
           style="stroke-width:0.145666" />
      </g>
    </g>
  </g>
</svg>
